<mxfile host="app.diagrams.net" agent="Mozilla/5.0 (X11; Linux x86_64) AppleWebKit/537.36 (KHTML, like Gecko) Chrome/130.0.0.0 Safari/537.36 OPR/115.0.0.0" version="26.0.11">
  <diagram id="D92_dH6H-56m5Iklp3J5" name="Page-1">
    <mxGraphModel dx="4174" dy="3126" grid="1" gridSize="10" guides="1" tooltips="1" connect="1" arrows="1" fold="1" page="1" pageScale="1" pageWidth="850" pageHeight="1100" math="0" shadow="0">
      <root>
        <mxCell id="0" />
        <mxCell id="1" parent="0" />
        <mxCell id="T4uXMFoD5u3B1nQVuzlc-6" value="top/velodyne_packets" style="edgeStyle=elbowEdgeStyle;rounded=0;comic=0;jumpStyle=arc;orthogonalLoop=1;jettySize=auto;elbow=vertical;html=1;exitX=0.5;exitY=1;exitDx=0;exitDy=0;entryX=0.5;entryY=0;entryDx=0;entryDy=0;startArrow=none;startFill=0;endArrow=classic;endFill=1;" parent="1" edge="1">
          <mxGeometry relative="1" as="geometry">
            <mxPoint x="-1830" y="-679.9999999999995" as="sourcePoint" />
          </mxGeometry>
        </mxCell>
        <mxCell id="PhnyhUWuh0wzEa-d3fqf-35" value="" style="edgeStyle=orthogonalEdgeStyle;rounded=0;orthogonalLoop=1;jettySize=auto;html=1;" parent="1" edge="1">
          <mxGeometry relative="1" as="geometry">
            <mxPoint x="-1830" y="-420.00000000000045" as="targetPoint" />
          </mxGeometry>
        </mxCell>
        <mxCell id="T4uXMFoD5u3B1nQVuzlc-17" value="lidar/*/velodyne_packets" style="edgeStyle=elbowEdgeStyle;rounded=0;comic=0;jumpStyle=arc;orthogonalLoop=1;jettySize=auto;elbow=vertical;html=1;exitX=0.5;exitY=1;exitDx=0;exitDy=0;entryX=0.5;entryY=0;entryDx=0;entryDy=0;startArrow=none;startFill=0;endArrow=classic;endFill=1;" parent="1" edge="1">
          <mxGeometry relative="1" as="geometry">
            <mxPoint x="-2000" y="-620.0000000000005" as="targetPoint" />
          </mxGeometry>
        </mxCell>
        <mxCell id="T4uXMFoD5u3B1nQVuzlc-19" value="&lt;span style=&quot;color: rgb(0 , 0 , 0) ; font-family: &amp;#34;helvetica&amp;#34; ; font-size: 11px ; font-style: normal ; font-weight: 400 ; letter-spacing: normal ; text-align: center ; text-indent: 0px ; text-transform: none ; word-spacing: 0px ; background-color: rgb(255 , 255 , 255) ; display: inline ; float: none&quot;&gt;*/rectified/pointcloud&lt;/span&gt;" style="edgeStyle=elbowEdgeStyle;rounded=0;comic=0;jumpStyle=arc;orthogonalLoop=1;jettySize=auto;elbow=vertical;html=1;exitX=0.5;exitY=1;exitDx=0;exitDy=0;entryX=0.5;entryY=0;entryDx=0;entryDy=0;startArrow=none;startFill=0;endArrow=classic;endFill=1;" parent="1" edge="1">
          <mxGeometry relative="1" as="geometry">
            <mxPoint x="-2000" y="-380.00000000000045" as="sourcePoint" />
          </mxGeometry>
        </mxCell>
        <mxCell id="T4uXMFoD5u3B1nQVuzlc-21" value="&lt;span style=&quot;color: rgb(0 , 0 , 0) ; font-family: &amp;#34;helvetica&amp;#34; ; font-size: 11px ; font-style: normal ; font-weight: 400 ; letter-spacing: normal ; text-align: center ; text-indent: 0px ; text-transform: none ; word-spacing: 0px ; background-color: rgb(255 , 255 , 255) ; display: inline ; float: none&quot;&gt;*/pointcloud_raw&lt;/span&gt;" style="edgeStyle=elbowEdgeStyle;rounded=0;comic=0;jumpStyle=arc;orthogonalLoop=1;jettySize=auto;elbow=vertical;html=1;exitX=0.5;exitY=1;exitDx=0;exitDy=0;entryX=0.5;entryY=0;entryDx=0;entryDy=0;startArrow=none;startFill=0;endArrow=classic;endFill=1;" parent="1" edge="1">
          <mxGeometry relative="1" as="geometry">
            <mxPoint x="-2000" y="-550.0000000000005" as="targetPoint" />
          </mxGeometry>
        </mxCell>
        <mxCell id="T4uXMFoD5u3B1nQVuzlc-23" value="&lt;span style=&quot;color: rgb(0 , 0 , 0) ; font-family: &amp;#34;helvetica&amp;#34; ; font-size: 11px ; font-style: normal ; font-weight: 400 ; letter-spacing: normal ; text-align: center ; text-indent: 0px ; text-transform: none ; word-spacing: 0px ; background-color: rgb(255 , 255 , 255) ; display: inline ; float: none&quot;&gt;*/self_cropped/pointcloud&lt;/span&gt;" style="edgeStyle=elbowEdgeStyle;rounded=0;comic=0;jumpStyle=arc;orthogonalLoop=1;jettySize=auto;elbow=vertical;html=1;exitX=0.5;exitY=1;exitDx=0;exitDy=0;entryX=0.5;entryY=0;entryDx=0;entryDy=0;startArrow=none;startFill=0;endArrow=classic;endFill=1;" parent="1" edge="1">
          <mxGeometry relative="1" as="geometry">
            <mxPoint x="-2000" y="-480.00000000000045" as="targetPoint" />
          </mxGeometry>
        </mxCell>
        <mxCell id="T4uXMFoD5u3B1nQVuzlc-25" value="&lt;span style=&quot;color: rgb(0 , 0 , 0) ; font-family: &amp;#34;helvetica&amp;#34; ; font-size: 11px ; font-style: normal ; font-weight: 400 ; letter-spacing: normal ; text-align: center ; text-indent: 0px ; text-transform: none ; word-spacing: 0px ; background-color: rgb(255 , 255 , 255) ; display: inline ; float: none&quot;&gt;*/mirror_cropped/pointcloud&lt;/span&gt;" style="edgeStyle=elbowEdgeStyle;rounded=0;comic=0;jumpStyle=arc;orthogonalLoop=1;jettySize=auto;elbow=vertical;html=1;exitX=0.5;exitY=1;exitDx=0;exitDy=0;entryX=0.5;entryY=0;entryDx=0;entryDy=0;startArrow=none;startFill=0;endArrow=classic;endFill=1;" parent="1" edge="1">
          <mxGeometry relative="1" as="geometry">
            <mxPoint x="-2000" y="-410.00000000000045" as="targetPoint" />
          </mxGeometry>
        </mxCell>
        <mxCell id="T4uXMFoD5u3B1nQVuzlc-30" style="edgeStyle=elbowEdgeStyle;rounded=0;comic=0;jumpStyle=arc;orthogonalLoop=1;jettySize=auto;elbow=vertical;html=1;entryX=0.5;entryY=0;entryDx=0;entryDy=0;startArrow=none;startFill=0;endArrow=classic;endFill=1;" parent="1" edge="1">
          <mxGeometry relative="1" as="geometry">
            <mxPoint x="-2000" y="-310.00000000000045" as="sourcePoint" />
          </mxGeometry>
        </mxCell>
        <mxCell id="dgDgLwtVGSBD31zoPSUn-20" style="edgeStyle=orthogonalEdgeStyle;rounded=0;orthogonalLoop=1;jettySize=auto;html=1;exitX=0.5;exitY=1;exitDx=0;exitDy=0;entryX=0.5;entryY=0;entryDx=0;entryDy=0;fontSize=12;fontColor=#000000;" parent="1" edge="1">
          <mxGeometry relative="1" as="geometry">
            <mxPoint x="-1620" y="-690" as="sourcePoint" />
          </mxGeometry>
        </mxCell>
        <mxCell id="CavwSXmpKCnvgIxQiqFj-243" style="edgeStyle=orthogonalEdgeStyle;rounded=0;orthogonalLoop=1;jettySize=auto;html=1;exitX=0.432;exitY=1.05;exitDx=0;exitDy=0;entryX=0.5;entryY=0;entryDx=0;entryDy=0;exitPerimeter=0;" parent="1" source="CavwSXmpKCnvgIxQiqFj-354" target="CavwSXmpKCnvgIxQiqFj-439" edge="1">
          <mxGeometry relative="1" as="geometry">
            <Array as="points">
              <mxPoint x="-169" y="-740" />
              <mxPoint x="-420" y="-740" />
            </Array>
          </mxGeometry>
        </mxCell>
        <mxCell id="CavwSXmpKCnvgIxQiqFj-244" value="" style="rounded=1;whiteSpace=wrap;html=1;dashed=1;fillColor=none;strokeWidth=3;comic=0;" parent="1" vertex="1">
          <mxGeometry x="-580" y="-600" width="660" height="1460" as="geometry" />
        </mxCell>
        <mxCell id="CavwSXmpKCnvgIxQiqFj-245" value="" style="rounded=1;whiteSpace=wrap;html=1;dashed=1;fillColor=none;strokeWidth=3;comic=0;" parent="1" vertex="1">
          <mxGeometry x="-2083" y="-580" width="873" height="280" as="geometry" />
        </mxCell>
        <mxCell id="CavwSXmpKCnvgIxQiqFj-246" value="" style="rounded=1;whiteSpace=wrap;html=1;dashed=1;fillColor=none;strokeWidth=3;comic=0;" parent="1" vertex="1">
          <mxGeometry x="-2168" y="-135" width="520" height="360" as="geometry" />
        </mxCell>
        <mxCell id="CavwSXmpKCnvgIxQiqFj-247" value="" style="rounded=1;whiteSpace=wrap;html=1;dashed=1;fillColor=none;strokeWidth=3;comic=0;" parent="1" vertex="1">
          <mxGeometry x="1367" y="-592" width="580" height="746.5" as="geometry" />
        </mxCell>
        <mxCell id="CavwSXmpKCnvgIxQiqFj-248" value="" style="rounded=1;whiteSpace=wrap;html=1;dashed=1;fillColor=none;strokeWidth=3;comic=0;" parent="1" vertex="1">
          <mxGeometry x="235" y="456" width="810" height="380" as="geometry" />
        </mxCell>
        <mxCell id="CavwSXmpKCnvgIxQiqFj-249" value="" style="rounded=1;whiteSpace=wrap;html=1;dashed=1;fillColor=none;strokeWidth=3;comic=0;" parent="1" vertex="1">
          <mxGeometry x="170" y="-545.5" width="1000" height="757.5" as="geometry" />
        </mxCell>
        <mxCell id="CavwSXmpKCnvgIxQiqFj-250" value="" style="rounded=1;whiteSpace=wrap;html=1;dashed=1;fillColor=none;strokeWidth=1;comic=0;" parent="1" vertex="1">
          <mxGeometry x="-240" y="-419" width="230" height="250" as="geometry" />
        </mxCell>
        <mxCell id="CavwSXmpKCnvgIxQiqFj-251" style="edgeStyle=orthogonalEdgeStyle;rounded=0;orthogonalLoop=1;jettySize=auto;html=1;exitX=0;exitY=0.25;exitDx=0;exitDy=0;entryX=0.5;entryY=0;entryDx=0;entryDy=0;" parent="1" source="CavwSXmpKCnvgIxQiqFj-253" target="CavwSXmpKCnvgIxQiqFj-473" edge="1">
          <mxGeometry relative="1" as="geometry">
            <Array as="points">
              <mxPoint x="240" y="-408" />
            </Array>
          </mxGeometry>
        </mxCell>
        <mxCell id="CavwSXmpKCnvgIxQiqFj-252" value="predicted path" style="edgeLabel;html=1;align=center;verticalAlign=middle;resizable=0;points=[];" parent="CavwSXmpKCnvgIxQiqFj-251" vertex="1" connectable="0">
          <mxGeometry x="-0.1168" y="6" relative="1" as="geometry">
            <mxPoint x="16" y="-14" as="offset" />
          </mxGeometry>
        </mxCell>
        <mxCell id="CavwSXmpKCnvgIxQiqFj-253" value="trajectory_follower" style="rounded=1;whiteSpace=wrap;html=1;fillColor=#ffe6cc;strokeColor=#d79b00;verticalAlign=top;" parent="1" vertex="1">
          <mxGeometry x="360" y="-518" width="480" height="440" as="geometry" />
        </mxCell>
        <mxCell id="CavwSXmpKCnvgIxQiqFj-254" value="top/pointcloud_raw" style="edgeStyle=elbowEdgeStyle;rounded=0;comic=0;jumpStyle=arc;orthogonalLoop=1;jettySize=auto;elbow=vertical;html=1;exitX=0.5;exitY=1;exitDx=0;exitDy=0;entryX=0.5;entryY=0;entryDx=0;entryDy=0;startArrow=none;startFill=0;endArrow=classic;endFill=1;" parent="1" edge="1">
          <mxGeometry relative="1" as="geometry">
            <mxPoint x="-1965" y="-550" as="targetPoint" />
            <mxPoint x="-1965" y="-580.0000000000005" as="sourcePoint" />
          </mxGeometry>
        </mxCell>
        <mxCell id="CavwSXmpKCnvgIxQiqFj-255" style="edgeStyle=orthogonalEdgeStyle;rounded=0;orthogonalLoop=1;jettySize=auto;html=1;exitX=0.5;exitY=1;exitDx=0;exitDy=0;entryX=0.5;entryY=0;entryDx=0;entryDy=0;" parent="1" source="CavwSXmpKCnvgIxQiqFj-257" target="CavwSXmpKCnvgIxQiqFj-342" edge="1">
          <mxGeometry relative="1" as="geometry" />
        </mxCell>
        <mxCell id="CavwSXmpKCnvgIxQiqFj-256" value="/sensing/gnss/novatel/oem7/odom&lt;br style=&quot;border-color: var(--border-color);&quot;&gt;[nav_msgs/msg/Odometry]" style="edgeLabel;html=1;align=center;verticalAlign=middle;resizable=0;points=[];" parent="CavwSXmpKCnvgIxQiqFj-255" vertex="1" connectable="0">
          <mxGeometry x="-0.2141" y="1" relative="1" as="geometry">
            <mxPoint as="offset" />
          </mxGeometry>
        </mxCell>
        <object label="&lt;b&gt;Oem7_gnss_driver&lt;/b&gt;" desc="MGRS座標系への変換" tooltip="gnssのdriverです" id="CavwSXmpKCnvgIxQiqFj-257">
          <mxCell style="rounded=1;whiteSpace=wrap;html=1;comic=0;strokeColor=#9673a6;fillColor=#e1d5e7;sketch=0;" parent="1" vertex="1">
            <mxGeometry x="-2005" y="-494.25" width="120" height="40" as="geometry" />
          </mxCell>
        </object>
        <mxCell id="CavwSXmpKCnvgIxQiqFj-258" value="/tf&lt;br&gt;(map to base_link)" style="edgeStyle=orthogonalEdgeStyle;rounded=0;comic=0;jumpStyle=arc;orthogonalLoop=1;jettySize=auto;html=1;startArrow=none;startFill=0;endArrow=classic;endFill=1;exitX=0.25;exitY=1;exitDx=0;exitDy=0;" parent="1" source="CavwSXmpKCnvgIxQiqFj-342" edge="1">
          <mxGeometry x="-0.0521" y="16" relative="1" as="geometry">
            <mxPoint x="-2140" y="-200" as="targetPoint" />
            <mxPoint x="-1955" y="-561" as="sourcePoint" />
            <Array as="points" />
            <mxPoint x="-1" as="offset" />
          </mxGeometry>
        </mxCell>
        <mxCell id="CavwSXmpKCnvgIxQiqFj-259" value="/localization/kinematic_state&lt;br&gt;[nav_msgs/msg/Odometry]" style="edgeStyle=orthogonalEdgeStyle;rounded=0;orthogonalLoop=1;jettySize=auto;html=1;exitX=0.5;exitY=1;exitDx=0;exitDy=0;comic=0;" parent="1" source="CavwSXmpKCnvgIxQiqFj-261" edge="1">
          <mxGeometry x="-0.75" y="15" relative="1" as="geometry">
            <mxPoint x="-2013" y="265" as="targetPoint" />
            <Array as="points">
              <mxPoint x="-2013" y="25" />
            </Array>
            <mxPoint as="offset" />
          </mxGeometry>
        </mxCell>
        <mxCell id="CavwSXmpKCnvgIxQiqFj-260" style="edgeStyle=orthogonalEdgeStyle;rounded=0;orthogonalLoop=1;jettySize=auto;html=1;exitX=0.5;exitY=1;exitDx=0;exitDy=0;entryX=0;entryY=0.5;entryDx=0;entryDy=0;" parent="1" source="CavwSXmpKCnvgIxQiqFj-261" target="CavwSXmpKCnvgIxQiqFj-262" edge="1">
          <mxGeometry relative="1" as="geometry">
            <Array as="points">
              <mxPoint x="-2013" y="159" />
            </Array>
          </mxGeometry>
        </mxCell>
        <UserObject label="&lt;b&gt;stop_filter&lt;/b&gt;" tooltip="Overwrite vx=0 and wz=0 when the vehicle wheel speed is zero to indicate the stop condition." link="https://github.com/autowarefoundation/autoware.universe/tree/main/localization/stop_filter#stop_filter" linkTarget="_blank" id="CavwSXmpKCnvgIxQiqFj-261">
          <mxCell style="rounded=1;whiteSpace=wrap;html=1;comic=0;fillColor=#dae8fc;strokeColor=#6c8ebf;sketch=0;" parent="1" vertex="1">
            <mxGeometry x="-2073" y="-51" width="120" height="40" as="geometry" />
          </mxCell>
        </UserObject>
        <UserObject label="&lt;b&gt;localization_error_monitor&lt;/b&gt;" tooltip="" link="https://github.com/autowarefoundation/autoware.universe/tree/main/localization/localization_error_monitor#localization_error_monitor" linkTarget="_blank" id="CavwSXmpKCnvgIxQiqFj-262">
          <mxCell style="rounded=1;whiteSpace=wrap;html=1;comic=0;fillColor=#dae8fc;strokeColor=#6c8ebf;sketch=0;" parent="1" vertex="1">
            <mxGeometry x="-1906" y="138.5" width="160" height="40" as="geometry" />
          </mxCell>
        </UserObject>
        <mxCell id="CavwSXmpKCnvgIxQiqFj-263" value="/diagnostics" style="edgeStyle=orthogonalEdgeStyle;rounded=0;orthogonalLoop=1;jettySize=auto;html=1;exitX=0.5;exitY=1;exitDx=0;exitDy=0;comic=0;" parent="1" source="CavwSXmpKCnvgIxQiqFj-262" edge="1">
          <mxGeometry relative="1" as="geometry">
            <mxPoint x="-1468" y="265" as="targetPoint" />
            <mxPoint x="-2016" y="385" as="sourcePoint" />
            <mxPoint as="offset" />
            <Array as="points">
              <mxPoint x="-1708" y="265" />
              <mxPoint x="-1468" y="265" />
            </Array>
          </mxGeometry>
        </mxCell>
        <mxCell id="CavwSXmpKCnvgIxQiqFj-264" value="/sensing/gnss/odom&lt;br&gt;[nav_msgs/msg/Odometry]" style="edgeStyle=orthogonalEdgeStyle;rounded=0;comic=0;jumpStyle=arc;orthogonalLoop=1;jettySize=auto;html=1;startArrow=none;startFill=0;endArrow=classic;endFill=1;entryX=0.5;entryY=0;entryDx=0;entryDy=0;exitX=0.75;exitY=1;exitDx=0;exitDy=0;" parent="1" source="CavwSXmpKCnvgIxQiqFj-342" target="CavwSXmpKCnvgIxQiqFj-261" edge="1">
          <mxGeometry x="0.0273" y="5" relative="1" as="geometry">
            <mxPoint x="-1825" y="-141" as="targetPoint" />
            <mxPoint x="-1915" y="-571" as="sourcePoint" />
            <Array as="points">
              <mxPoint x="-1910" y="-311" />
              <mxPoint x="-1910" y="-190" />
              <mxPoint x="-2013" y="-190" />
            </Array>
            <mxPoint as="offset" />
          </mxGeometry>
        </mxCell>
        <mxCell id="CavwSXmpKCnvgIxQiqFj-265" value="&lt;b&gt;&amp;lt;Parking&amp;gt;&lt;/b&gt;" style="text;html=1;strokeColor=none;fillColor=none;align=center;verticalAlign=middle;whiteSpace=wrap;rounded=0;dashed=1;comic=0;" parent="1" vertex="1">
          <mxGeometry x="-90" y="-411" width="80" height="20" as="geometry" />
        </mxCell>
        <UserObject label="&lt;b&gt;costmap_generator&lt;/b&gt;" tooltip="障害物点群や地図の走行可能エリアの情報から、駐車プランナー用のコストマップを生成する。" link="https://github.com/autowarefoundation/autoware.universe/tree/main/planning/costmap_generator#costmap_generator" linkTarget="_blank" id="CavwSXmpKCnvgIxQiqFj-266">
          <mxCell style="rounded=1;whiteSpace=wrap;html=1;comic=0;fillColor=#fff2cc;strokeColor=#d6b656;sketch=0;shadow=0;" parent="1" vertex="1">
            <mxGeometry x="-150" y="-249" width="120" height="40" as="geometry" />
          </mxCell>
        </UserObject>
        <mxCell id="CavwSXmpKCnvgIxQiqFj-267" value="/planning/mission_planning/route&lt;br&gt;[autoware_auto_planning_msgs/HADMapRoute]" style="edgeStyle=orthogonalEdgeStyle;rounded=0;comic=0;orthogonalLoop=1;jettySize=auto;html=1;entryX=0.5;entryY=0;entryDx=0;entryDy=0;startArrow=none;startFill=0;jumpStyle=none;" parent="1" source="CavwSXmpKCnvgIxQiqFj-354" target="CavwSXmpKCnvgIxQiqFj-268" edge="1">
          <mxGeometry x="-0.8147" y="-1" relative="1" as="geometry">
            <Array as="points">
              <mxPoint x="-169" y="-580" />
              <mxPoint x="-170" y="-580" />
            </Array>
            <mxPoint as="offset" />
            <mxPoint x="-170" y="-730" as="sourcePoint" />
          </mxGeometry>
        </mxCell>
        <UserObject label="&lt;b&gt;freespace_planner&lt;/b&gt;" tooltip="コストマップとゴールから、自車の走行ルートを計算する。いまはHA*を使ってる。" link="https://github.com/autowarefoundation/autoware.universe/tree/main/planning/freespace_planner#the-freespace_planner" linkTarget="_blank" id="CavwSXmpKCnvgIxQiqFj-268">
          <mxCell style="rounded=1;whiteSpace=wrap;html=1;comic=0;fillColor=#fff2cc;strokeColor=#d6b656;sketch=0;shadow=0;" parent="1" vertex="1">
            <mxGeometry x="-230" y="-339" width="120" height="40" as="geometry" />
          </mxCell>
        </UserObject>
        <mxCell id="CavwSXmpKCnvgIxQiqFj-269" value="costmap_generator/occupancy_grid" style="edgeStyle=orthogonalEdgeStyle;rounded=0;comic=0;orthogonalLoop=1;jettySize=auto;html=1;startArrow=none;startFill=0;orthogonal=1;entryX=1;entryY=0.5;entryDx=0;entryDy=0;exitX=0.5;exitY=0;exitDx=0;exitDy=0;" parent="1" source="CavwSXmpKCnvgIxQiqFj-266" target="CavwSXmpKCnvgIxQiqFj-268" edge="1">
          <mxGeometry x="-0.3333" relative="1" as="geometry">
            <mxPoint x="-120" y="-244" as="sourcePoint" />
            <mxPoint as="offset" />
          </mxGeometry>
        </mxCell>
        <mxCell id="CavwSXmpKCnvgIxQiqFj-270" value="&lt;span style=&quot;color: rgb(0, 0, 0); font-family: helvetica; font-size: 11px; font-style: normal; font-weight: 400; letter-spacing: normal; text-align: center; text-indent: 0px; text-transform: none; word-spacing: 0px; background-color: rgb(255, 255, 255); display: inline; float: none;&quot;&gt;parking/trajectory [Trajectory]&lt;/span&gt;" style="edgeStyle=orthogonalEdgeStyle;rounded=0;orthogonalLoop=1;jettySize=auto;html=1;entryX=1;entryY=0.25;entryDx=0;entryDy=0;" parent="1" target="CavwSXmpKCnvgIxQiqFj-432" edge="1">
          <mxGeometry x="0.6763" relative="1" as="geometry">
            <mxPoint x="-170" y="-89" as="targetPoint" />
            <Array as="points">
              <mxPoint x="-180" y="-299" />
              <mxPoint x="-180" y="630" />
            </Array>
            <mxPoint as="offset" />
            <mxPoint x="-200" y="-299" as="sourcePoint" />
          </mxGeometry>
        </mxCell>
        <mxCell id="CavwSXmpKCnvgIxQiqFj-271" value="/diagnostics" style="edgeStyle=orthogonalEdgeStyle;rounded=0;orthogonalLoop=1;jettySize=auto;html=1;entryX=1;entryY=0.25;entryDx=0;entryDy=0;comic=0;" parent="1" source="CavwSXmpKCnvgIxQiqFj-309" target="CavwSXmpKCnvgIxQiqFj-317" edge="1">
          <mxGeometry x="-0.2889" relative="1" as="geometry">
            <mxPoint as="offset" />
          </mxGeometry>
        </mxCell>
        <mxCell id="CavwSXmpKCnvgIxQiqFj-272" value="&lt;div style=&quot;text-align: left&quot;&gt;/autoware/engage&amp;nbsp;[Engage]&lt;/div&gt;&lt;div style=&quot;text-align: left&quot;&gt;/current_gate_mode [GateMode]&lt;/div&gt;" style="edgeStyle=orthogonalEdgeStyle;rounded=0;comic=0;sketch=0;jumpStyle=arc;orthogonalLoop=1;jettySize=auto;html=1;exitX=1;exitY=0.25;exitDx=0;exitDy=0;endArrow=none;endFill=0;startArrow=classic;startFill=1;entryX=0.5;entryY=1;entryDx=0;entryDy=0;" parent="1" source="CavwSXmpKCnvgIxQiqFj-293" target="CavwSXmpKCnvgIxQiqFj-327" edge="1">
          <mxGeometry x="-0.0014" relative="1" as="geometry">
            <mxPoint x="700" y="485" as="targetPoint" />
            <mxPoint y="1" as="offset" />
            <Array as="points">
              <mxPoint x="1240" y="152" />
              <mxPoint x="1240" y="-800" />
              <mxPoint x="760" y="-800" />
            </Array>
          </mxGeometry>
        </mxCell>
        <mxCell id="CavwSXmpKCnvgIxQiqFj-273" style="edgeStyle=orthogonalEdgeStyle;rounded=0;orthogonalLoop=1;jettySize=auto;html=1;entryX=0.5;entryY=0;entryDx=0;entryDy=0;exitX=0.75;exitY=1;exitDx=0;exitDy=0;" parent="1" source="CavwSXmpKCnvgIxQiqFj-327" target="CavwSXmpKCnvgIxQiqFj-300" edge="1">
          <mxGeometry relative="1" as="geometry">
            <mxPoint x="700" y="-150" as="sourcePoint" />
            <Array as="points">
              <mxPoint x="790" y="-1030" />
              <mxPoint x="1080" y="-1030" />
            </Array>
          </mxGeometry>
        </mxCell>
        <mxCell id="CavwSXmpKCnvgIxQiqFj-274" value="&lt;span style=&quot;text-align: left&quot;&gt;/api/external/set/command/remote/control: [tier4_external_api_msgs/msg/ControlCommandStamped]&lt;/span&gt;&lt;br style=&quot;text-align: left&quot;&gt;&lt;span style=&quot;text-align: left&quot;&gt;/api/external/set/command/remote/heartbeat: [tier4_external_api_msgs/msg/Heartbeat]&lt;/span&gt;&lt;br style=&quot;text-align: left&quot;&gt;&lt;span style=&quot;text-align: left&quot;&gt;/api/external/set/command/remote/shift: [tier4_external_api_msgs/msg/GearShiftStamped]&lt;/span&gt;&lt;br style=&quot;text-align: left&quot;&gt;&lt;span style=&quot;text-align: left&quot;&gt;/api/external/set/command/remote/turn_signal: [tier4_external_api_msgs/msg/TurnSignalStamped]&lt;/span&gt;" style="edgeLabel;html=1;align=center;verticalAlign=middle;resizable=0;points=[];fontSize=11;fontColor=default;rotation=0;" parent="CavwSXmpKCnvgIxQiqFj-273" vertex="1" connectable="0">
          <mxGeometry x="-0.2571" y="-1" relative="1" as="geometry">
            <mxPoint x="242" y="149" as="offset" />
          </mxGeometry>
        </mxCell>
        <mxCell id="CavwSXmpKCnvgIxQiqFj-275" style="edgeStyle=orthogonalEdgeStyle;rounded=0;orthogonalLoop=1;jettySize=auto;html=1;exitX=0.5;exitY=1;exitDx=0;exitDy=0;entryX=0.5;entryY=0;entryDx=0;entryDy=0;labelBackgroundColor=none;fontColor=default;" parent="1" source="CavwSXmpKCnvgIxQiqFj-286" target="CavwSXmpKCnvgIxQiqFj-297" edge="1">
          <mxGeometry relative="1" as="geometry" />
        </mxCell>
        <mxCell id="CavwSXmpKCnvgIxQiqFj-276" value="&lt;b&gt;accel_map_calibrator&lt;/b&gt;" style="rounded=1;whiteSpace=wrap;html=1;fillColor=#b0e3e6;strokeColor=#0e8088;" parent="1" vertex="1">
          <mxGeometry x="312" y="496" width="140" height="40" as="geometry" />
        </mxCell>
        <mxCell id="CavwSXmpKCnvgIxQiqFj-277" style="edgeStyle=orthogonalEdgeStyle;rounded=0;orthogonalLoop=1;jettySize=auto;html=1;entryX=1;entryY=0.5;entryDx=0;entryDy=0;labelBackgroundColor=none;fontColor=default;exitX=0.5;exitY=1;exitDx=0;exitDy=0;" parent="1" source="CavwSXmpKCnvgIxQiqFj-303" target="CavwSXmpKCnvgIxQiqFj-276" edge="1">
          <mxGeometry relative="1" as="geometry">
            <Array as="points">
              <mxPoint x="550" y="596" />
              <mxPoint x="470" y="596" />
              <mxPoint x="470" y="516" />
            </Array>
          </mxGeometry>
        </mxCell>
        <mxCell id="CavwSXmpKCnvgIxQiqFj-278" style="edgeStyle=orthogonalEdgeStyle;rounded=0;orthogonalLoop=1;jettySize=auto;html=1;entryX=0.912;entryY=0.039;entryDx=0;entryDy=0;entryPerimeter=0;labelBackgroundColor=default;fontColor=default;" parent="1" source="CavwSXmpKCnvgIxQiqFj-300" target="CavwSXmpKCnvgIxQiqFj-293" edge="1">
          <mxGeometry relative="1" as="geometry">
            <Array as="points">
              <mxPoint x="920" y="-361" />
            </Array>
          </mxGeometry>
        </mxCell>
        <mxCell id="CavwSXmpKCnvgIxQiqFj-279" value="&lt;div style=&quot;text-align: left&quot;&gt;&lt;font style=&quot;font-size: 11px&quot;&gt;/api/external/set/command/remote/control&amp;nbsp;&lt;br&gt;&lt;/font&gt;&lt;/div&gt;&lt;div style=&quot;text-align: left&quot;&gt;&lt;font style=&quot;font-size: 11px&quot;&gt;&amp;nbsp; &amp;nbsp;[tier4_external_api_msgs/msg/ControlCommandStamped]&lt;/font&gt;&lt;/div&gt;&lt;div style=&quot;text-align: left&quot;&gt;&lt;font style=&quot;font-size: 11px&quot;&gt;/api/external/set/command/remote/shift&lt;/font&gt;&lt;/div&gt;&lt;div style=&quot;text-align: left&quot;&gt;&lt;font style=&quot;font-size: 11px&quot;&gt;&amp;nbsp; &amp;nbsp;[tier4_external_api_msgs/msg/GearShiftStamped]&lt;/font&gt;&lt;/div&gt;&lt;div style=&quot;text-align: left&quot;&gt;&lt;font style=&quot;font-size: 11px&quot;&gt;/api/external/set/command/remote/turn_signal&lt;/font&gt;&lt;/div&gt;&lt;div style=&quot;text-align: left&quot;&gt;&lt;font style=&quot;font-size: 11px&quot;&gt;&amp;nbsp; &amp;nbsp;[tier4_external_api_msgs/msg/TurnSignalStamped]&lt;/font&gt;&lt;/div&gt;" style="edgeLabel;html=1;align=center;verticalAlign=middle;resizable=0;points=[];fontColor=default;labelBackgroundColor=#FFFFFF;" parent="CavwSXmpKCnvgIxQiqFj-278" vertex="1" connectable="0">
          <mxGeometry x="0.0689" y="3" relative="1" as="geometry">
            <mxPoint x="-19" y="149" as="offset" />
          </mxGeometry>
        </mxCell>
        <mxCell id="CavwSXmpKCnvgIxQiqFj-280" style="edgeStyle=orthogonalEdgeStyle;rounded=0;orthogonalLoop=1;jettySize=auto;html=1;labelBackgroundColor=default;fontColor=default;entryX=0.946;entryY=-0.002;entryDx=0;entryDy=0;entryPerimeter=0;" parent="1" source="CavwSXmpKCnvgIxQiqFj-298" target="CavwSXmpKCnvgIxQiqFj-293" edge="1">
          <mxGeometry relative="1" as="geometry">
            <mxPoint x="1040" y="132" as="targetPoint" />
            <Array as="points">
              <mxPoint x="1080" y="92" />
              <mxPoint x="943" y="92" />
            </Array>
          </mxGeometry>
        </mxCell>
        <mxCell id="CavwSXmpKCnvgIxQiqFj-281" value="&lt;div style=&quot;text-align: left&quot;&gt;/api/external/get/command/selected/control&lt;/div&gt;&amp;nbsp; &amp;nbsp; [tier4_external_api_msgs/msg/ControlCommandStamped]" style="edgeLabel;html=1;align=center;verticalAlign=middle;resizable=0;points=[];fontColor=default;" parent="CavwSXmpKCnvgIxQiqFj-280" vertex="1" connectable="0">
          <mxGeometry x="0.0165" y="6" relative="1" as="geometry">
            <mxPoint x="118" y="-68" as="offset" />
          </mxGeometry>
        </mxCell>
        <mxCell id="CavwSXmpKCnvgIxQiqFj-282" value="/vehicle/engage" style="edgeStyle=orthogonalEdgeStyle;rounded=0;orthogonalLoop=1;jettySize=auto;html=1;exitX=0.5;exitY=0;exitDx=0;exitDy=0;entryX=0.5;entryY=0.775;entryDx=0;entryDy=0;entryPerimeter=0;fontSize=12;fontColor=#000000;" parent="1" source="CavwSXmpKCnvgIxQiqFj-283" target="CavwSXmpKCnvgIxQiqFj-329" edge="1">
          <mxGeometry relative="1" as="geometry" />
        </mxCell>
        <mxCell id="CavwSXmpKCnvgIxQiqFj-283" value="&lt;b&gt;HMI&lt;/b&gt;" style="rounded=1;whiteSpace=wrap;html=1;fillColor=#bac8d3;strokeColor=#23445d;" parent="1" vertex="1">
          <mxGeometry x="546" y="1186" width="120" height="40" as="geometry" />
        </mxCell>
        <mxCell id="CavwSXmpKCnvgIxQiqFj-284" value="&lt;div style=&quot;text-align: left&quot;&gt;&lt;span&gt;/control/current_gate_mode&lt;/span&gt;&lt;/div&gt;&lt;div style=&quot;text-align: left&quot;&gt;&lt;span&gt;/vehicle/status/control_mode&lt;/span&gt;&lt;/div&gt;&lt;div style=&quot;text-align: left&quot;&gt;&lt;span&gt;/autoware/state&lt;/span&gt;&lt;/div&gt;" style="endArrow=classic;html=1;rounded=0;labelBackgroundColor=none;jumpStyle=arc;" parent="1" edge="1">
          <mxGeometry x="-0.6522" width="50" height="50" relative="1" as="geometry">
            <mxPoint x="1617" y="-193.5" as="sourcePoint" />
            <mxPoint x="1527" y="-273.5" as="targetPoint" />
            <Array as="points">
              <mxPoint x="1617" y="-273.5" />
            </Array>
            <mxPoint as="offset" />
          </mxGeometry>
        </mxCell>
        <mxCell id="CavwSXmpKCnvgIxQiqFj-285" value="/diagnostics_err" style="edgeStyle=orthogonalEdgeStyle;rounded=0;jumpStyle=arc;orthogonalLoop=1;jettySize=auto;html=1;labelBackgroundColor=none;" parent="1" source="CavwSXmpKCnvgIxQiqFj-317" edge="1">
          <mxGeometry relative="1" as="geometry">
            <mxPoint x="1467" y="-193.5" as="targetPoint" />
          </mxGeometry>
        </mxCell>
        <UserObject label="&lt;b&gt;latlon_muxer&lt;/b&gt;" link="https://github.com/autowarefoundation/autoware.universe/blob/main/control/trajectory_follower_nodes/design/trajectory_follower-design.md#trajectory-follower-nodes" tooltip="縦横を分けて計算された制御コマンドを統合して出力します" linkTarget="_blank" id="CavwSXmpKCnvgIxQiqFj-286">
          <mxCell style="rounded=1;whiteSpace=wrap;html=1;comic=0;fillColor=#ffe6cc;strokeColor=#d79b00;sketch=0;glass=0;shadow=0;" parent="1" vertex="1">
            <mxGeometry x="525" y="-178" width="120" height="40" as="geometry" />
          </mxCell>
        </UserObject>
        <mxCell id="CavwSXmpKCnvgIxQiqFj-287" value="&lt;div&gt;&amp;nbsp;/control/trajectory_follower/lateral/control_cmd&lt;/div&gt;&lt;div&gt;&amp;nbsp;[AckermannLateralControlCommand]&lt;/div&gt;&lt;div&gt;&lt;br&gt;&lt;/div&gt;" style="edgeStyle=orthogonalEdgeStyle;rounded=0;comic=0;orthogonalLoop=1;jettySize=auto;html=1;entryX=0.5;entryY=0;entryDx=0;entryDy=0;labelBackgroundColor=none;" parent="1" source="CavwSXmpKCnvgIxQiqFj-290" target="CavwSXmpKCnvgIxQiqFj-286" edge="1">
          <mxGeometry x="-0.5402" y="19" relative="1" as="geometry">
            <Array as="points">
              <mxPoint x="450" y="-228" />
              <mxPoint x="585" y="-228" />
              <mxPoint x="585" y="-195" />
            </Array>
            <mxPoint as="offset" />
          </mxGeometry>
        </mxCell>
        <mxCell id="CavwSXmpKCnvgIxQiqFj-288" value="/control/trajectory_follower/longitudinal/control_cmd&lt;br&gt;[LongitudinalControlCommand]" style="edgeStyle=orthogonalEdgeStyle;rounded=0;comic=0;orthogonalLoop=1;jettySize=auto;html=1;entryX=0.5;entryY=0;entryDx=0;entryDy=0;labelBackgroundColor=none;startArrow=none;exitX=0.5;exitY=1;exitDx=0;exitDy=0;" parent="1" source="CavwSXmpKCnvgIxQiqFj-291" target="CavwSXmpKCnvgIxQiqFj-286" edge="1">
          <mxGeometry x="-0.5342" y="-22" relative="1" as="geometry">
            <mxPoint x="780" y="-58" as="targetPoint" />
            <Array as="points">
              <mxPoint x="730" y="-228" />
              <mxPoint x="585" y="-228" />
              <mxPoint x="585" y="-195" />
            </Array>
            <mxPoint as="offset" />
            <mxPoint x="709" y="-168" as="sourcePoint" />
          </mxGeometry>
        </mxCell>
        <mxCell id="CavwSXmpKCnvgIxQiqFj-289" value="&lt;div&gt;/control/trajectory_follower/control_cmd&lt;/div&gt;&lt;div&gt;&amp;nbsp;[AckermannControlCommand]&lt;/div&gt;&lt;div&gt;&lt;br&gt;&lt;/div&gt;" style="edgeStyle=orthogonalEdgeStyle;rounded=0;comic=0;orthogonalLoop=1;jettySize=auto;html=1;entryX=0.231;entryY=-0.007;entryDx=0;entryDy=0;entryPerimeter=0;exitX=0.5;exitY=1;exitDx=0;exitDy=0;fillColor=none;fontColor=default;labelBackgroundColor=none;" parent="1" source="CavwSXmpKCnvgIxQiqFj-286" target="CavwSXmpKCnvgIxQiqFj-293" edge="1">
          <mxGeometry x="-0.8248" relative="1" as="geometry">
            <mxPoint x="631" y="2" as="sourcePoint" />
            <mxPoint x="631" y="72" as="targetPoint" />
            <mxPoint as="offset" />
            <Array as="points">
              <mxPoint x="585" y="-38" />
              <mxPoint x="457" y="-38" />
            </Array>
          </mxGeometry>
        </mxCell>
        <UserObject label="&lt;b&gt;lateral_controller&lt;/b&gt;" link="https://github.com/autowarefoundation/autoware.universe/blob/main/control/trajectory_follower_nodes/design/trajectory_follower-design.md#trajectory-follower-nodes" tooltip="経路追従のための目標ステア角とステア角速度を計算します。目標速度と加速度は経路に埋め込まれた値をそのまま出力します。" linkTarget="_blank" id="CavwSXmpKCnvgIxQiqFj-290">
          <mxCell style="rounded=1;whiteSpace=wrap;html=1;comic=0;fillColor=#ffe6cc;strokeColor=#d79b00;sketch=0;glass=0;shadow=0;" parent="1" vertex="1">
            <mxGeometry x="390" y="-381.5" width="120" height="40" as="geometry" />
          </mxCell>
        </UserObject>
        <UserObject label="&lt;b&gt;longitudinal_controller&lt;/b&gt;" link="https://github.com/autowarefoundation/autoware.universe/blob/main/control/trajectory_follower_nodes/design/trajectory_follower-design.md#trajectory-follower-nodes" tooltip="経路の目標速度に沿うための目標加速度を計算します。遅延補正や停止時のブレーキ抜き操作も行います。" linkTarget="_blank" id="CavwSXmpKCnvgIxQiqFj-291">
          <mxCell style="rounded=1;whiteSpace=wrap;html=1;comic=0;fillColor=#ffe6cc;strokeColor=#d79b00;sketch=0;glass=0;shadow=0;" parent="1" vertex="1">
            <mxGeometry x="650" y="-381.5" width="160" height="40" as="geometry" />
          </mxCell>
        </UserObject>
        <mxCell id="CavwSXmpKCnvgIxQiqFj-292" style="edgeStyle=orthogonalEdgeStyle;rounded=0;orthogonalLoop=1;jettySize=auto;html=1;exitX=0.5;exitY=1;exitDx=0;exitDy=0;entryX=0.5;entryY=0;entryDx=0;entryDy=0;" parent="1" source="CavwSXmpKCnvgIxQiqFj-293" target="CavwSXmpKCnvgIxQiqFj-276" edge="1">
          <mxGeometry relative="1" as="geometry" />
        </mxCell>
        <UserObject label="&lt;b&gt;vehicle_cmd_gate&lt;/b&gt;" link="https://github.com/autowarefoundation/autoware.universe/tree/main/control/vehicle_cmd_gate#vehicle_cmd_gate" tooltip="指示モードに応じて、複数のコマンドの中から後段に渡すコマンドを選択します。" linkTarget="_blank" id="CavwSXmpKCnvgIxQiqFj-293">
          <mxCell style="rounded=1;whiteSpace=wrap;html=1;comic=0;fillColor=#ffe6cc;strokeColor=#d79b00;sketch=0;glass=0;shadow=0;" parent="1" vertex="1">
            <mxGeometry x="300" y="137" width="680" height="60" as="geometry" />
          </mxCell>
        </UserObject>
        <mxCell id="CavwSXmpKCnvgIxQiqFj-294" value="" style="edgeStyle=orthogonalEdgeStyle;rounded=0;comic=0;orthogonalLoop=1;jettySize=auto;html=1;entryX=0.5;entryY=0;entryDx=0;entryDy=0;" parent="1" source="CavwSXmpKCnvgIxQiqFj-293" target="CavwSXmpKCnvgIxQiqFj-303" edge="1">
          <mxGeometry relative="1" as="geometry">
            <mxPoint x="550" y="180" as="sourcePoint" />
            <mxPoint x="717" y="785" as="targetPoint" />
            <Array as="points" />
          </mxGeometry>
        </mxCell>
        <mxCell id="CavwSXmpKCnvgIxQiqFj-295" value="control/command/control_cmd&lt;br&gt;&amp;nbsp;[AckermannControlCommand]" style="edgeLabel;html=1;align=center;verticalAlign=middle;resizable=0;points=[];comic=0;" parent="CavwSXmpKCnvgIxQiqFj-294" vertex="1" connectable="0">
          <mxGeometry x="0.7105" relative="1" as="geometry">
            <mxPoint x="5" y="-45" as="offset" />
          </mxGeometry>
        </mxCell>
        <mxCell id="CavwSXmpKCnvgIxQiqFj-296" value="/control/shift_decider/gear_cmd&lt;br&gt;[GearCommand]" style="edgeStyle=orthogonalEdgeStyle;rounded=0;comic=0;orthogonalLoop=1;jettySize=auto;html=1;exitX=0.5;exitY=1;exitDx=0;exitDy=0;entryX=0.419;entryY=-0.005;entryDx=0;entryDy=0;entryPerimeter=0;" parent="1" source="CavwSXmpKCnvgIxQiqFj-297" target="CavwSXmpKCnvgIxQiqFj-293" edge="1">
          <mxGeometry x="-0.1656" relative="1" as="geometry">
            <Array as="points">
              <mxPoint x="585" y="92" />
              <mxPoint x="585" y="92" />
            </Array>
            <mxPoint x="640" y="142" as="targetPoint" />
            <mxPoint as="offset" />
          </mxGeometry>
        </mxCell>
        <UserObject label="&lt;b&gt;shift_decider&lt;/b&gt;" link="https://github.com/autowarefoundation/autoware.universe/tree/main/control/shift_decider#shift-decider" tooltip="制御出力に応じてギア変更のコマンドを出力します" linkTarget="_blank" id="CavwSXmpKCnvgIxQiqFj-297">
          <mxCell style="rounded=1;whiteSpace=wrap;html=1;comic=0;fillColor=#ffe6cc;strokeColor=#d79b00;sketch=0;glass=0;shadow=0;" parent="1" vertex="1">
            <mxGeometry x="525" y="20" width="120" height="40" as="geometry" />
          </mxCell>
        </UserObject>
        <UserObject label="&lt;b&gt;external_cmd_&lt;/b&gt;&lt;br&gt;&lt;b&gt;converter&lt;/b&gt;" link="https://github.com/autowarefoundation/autoware.universe/tree/main/vehicle/external_cmd_converter#external_cmd_converter" tooltip="遠隔から来たコマンド（アクセル/ブレーキ）を目標速度/加速度の信号に変換します" linkTarget="_blank" id="CavwSXmpKCnvgIxQiqFj-298">
          <mxCell style="rounded=1;whiteSpace=wrap;html=1;comic=0;fillColor=#ffe6cc;strokeColor=#d79b00;sketch=0;glass=0;shadow=0;" parent="1" vertex="1">
            <mxGeometry x="1020" y="-98" width="120" height="40" as="geometry" />
          </mxCell>
        </UserObject>
        <mxCell id="CavwSXmpKCnvgIxQiqFj-299" value="/external/selected/external_control_cmd&lt;br&gt;&amp;nbsp;[tier4_external_api_msgs/msg/ControlCommandStamped]" style="edgeStyle=orthogonalEdgeStyle;rounded=0;comic=0;orthogonalLoop=1;jettySize=auto;html=1;entryX=0.5;entryY=0;entryDx=0;entryDy=0;exitX=0.5;exitY=1;exitDx=0;exitDy=0;" parent="1" source="CavwSXmpKCnvgIxQiqFj-300" target="CavwSXmpKCnvgIxQiqFj-298" edge="1">
          <mxGeometry relative="1" as="geometry">
            <mxPoint x="1561" y="182" as="targetPoint" />
            <Array as="points">
              <mxPoint x="1080" y="-118" />
              <mxPoint x="1080" y="-118" />
            </Array>
          </mxGeometry>
        </mxCell>
        <UserObject label="&lt;b&gt;external_cmd_&lt;br&gt;selector&lt;/b&gt;" link="https://github.com/autowarefoundation/autoware.universe/tree/main/control/external_cmd_selector#external_cmd_selector" linkTarget="_blank" id="CavwSXmpKCnvgIxQiqFj-300">
          <mxCell style="rounded=1;whiteSpace=wrap;html=1;comic=0;fillColor=#ffe6cc;strokeColor=#d79b00;sketch=0;glass=0;shadow=0;" parent="1" vertex="1">
            <mxGeometry x="1020" y="-381.5" width="120" height="40" as="geometry" />
          </mxCell>
        </UserObject>
        <mxCell id="CavwSXmpKCnvgIxQiqFj-301" value="/current_gate_mode&amp;nbsp;[GateMode]&lt;div&gt;/gear_cmd [GearCommand]&lt;/div&gt;&lt;div&gt;/turn_indicators_cmd&amp;nbsp; [TurnIndicatorCommand]&lt;/div&gt;&lt;div&gt;&lt;div&gt;/hazard_lights_cmd&amp;nbsp; [HazardLightsCommand]&lt;/div&gt;&lt;/div&gt;&lt;div&gt;/vehicle_emergency_cmd [VehicleEmergencyStamped]&lt;/div&gt;" style="rounded=0;comic=0;orthogonalLoop=1;jettySize=auto;html=1;entryX=0.729;entryY=0.042;entryDx=0;entryDy=0;align=left;labelBackgroundColor=default;exitX=0.75;exitY=1;exitDx=0;exitDy=0;entryPerimeter=0;" parent="1" source="CavwSXmpKCnvgIxQiqFj-293" target="CavwSXmpKCnvgIxQiqFj-302" edge="1">
          <mxGeometry x="-0.288" y="-50" relative="1" as="geometry">
            <mxPoint y="1" as="offset" />
            <mxPoint x="780.9200000000001" y="614.02" as="targetPoint" />
            <mxPoint x="782.8331640019242" y="270" as="sourcePoint" />
          </mxGeometry>
        </mxCell>
        <object label="&lt;b&gt;&amp;nbsp; &amp;nbsp; vehicle_interface&lt;/b&gt;" tooltip="Autowareと車両のinterfaceです。データの変換が主なタスクです。" id="CavwSXmpKCnvgIxQiqFj-302">
          <mxCell style="rounded=1;whiteSpace=wrap;html=1;fillColor=#b0e3e6;strokeColor=#0e8088;align=left;comic=0;sketch=0;" parent="1" vertex="1">
            <mxGeometry x="315" y="736" width="680" height="70" as="geometry" />
          </mxCell>
        </object>
        <UserObject label="&lt;b&gt;raw_vehicle_cmd_&lt;/b&gt;&lt;br&gt;&lt;b&gt;converter&lt;/b&gt;" link="https://github.com/autowarefoundation/autoware.universe/tree/main/vehicle/raw_vehicle_cmd_converter#raw_vehicle_cmd_converter" tooltip="速度・加速度の目標値を、車両特有の制御信号（アクセル/ブレーキ等）に変換します" linkTarget="_blank" id="CavwSXmpKCnvgIxQiqFj-303">
          <mxCell style="rounded=1;whiteSpace=wrap;html=1;comic=0;fillColor=#b0e3e6;strokeColor=#0e8088;sketch=0;" parent="1" vertex="1">
            <mxGeometry x="490" y="496" width="120" height="40" as="geometry" />
          </mxCell>
        </UserObject>
        <mxCell id="CavwSXmpKCnvgIxQiqFj-304" value="/control/command/actuation_cmd" style="edgeStyle=orthogonalEdgeStyle;rounded=0;comic=0;orthogonalLoop=1;jettySize=auto;html=1;exitX=0.5;exitY=1;exitDx=0;exitDy=0;" parent="1" source="CavwSXmpKCnvgIxQiqFj-303" edge="1">
          <mxGeometry x="-0.6153" y="20" relative="1" as="geometry">
            <mxPoint x="550" y="736" as="targetPoint" />
            <mxPoint as="offset" />
            <Array as="points">
              <mxPoint x="550" y="636" />
              <mxPoint x="550" y="636" />
            </Array>
          </mxGeometry>
        </mxCell>
        <UserObject label="&lt;b&gt;pacmod_interface&lt;/b&gt;" link="https://github.com/tier4/pacmod_interface/tree/main/pacmod_interface#pacmod_interface" tooltip="pacmodとのinterfaced。LexusとかJapanTaxiとか。" linkTarget="_blank" id="CavwSXmpKCnvgIxQiqFj-305">
          <mxCell style="rounded=1;whiteSpace=wrap;html=1;comic=0;fillColor=#b0e3e6;strokeColor=#0e8088;sketch=0;" parent="1" vertex="1">
            <mxGeometry x="545" y="751" width="120" height="40" as="geometry" />
          </mxCell>
        </UserObject>
        <mxCell id="CavwSXmpKCnvgIxQiqFj-306" value="/vehicle/status/velocity_status&lt;br&gt;/vehicle/status/steering_status&lt;br&gt;/vehicle/status/turn_indicators_status&lt;br&gt;/vehicle/status/gear_status&lt;br&gt;/vehicle/status/control_mode&lt;br&gt;/vehicle/status/&lt;span style=&quot;text-align: center&quot;&gt;actuation_status&lt;/span&gt;" style="endArrow=classic;html=1;exitX=0.121;exitY=0.011;exitDx=0;exitDy=0;exitPerimeter=0;comic=0;align=left;" parent="1" edge="1">
          <mxGeometry x="-0.0831" y="65" width="50" height="50" relative="1" as="geometry">
            <mxPoint x="380.0199999999986" y="736.77" as="sourcePoint" />
            <mxPoint x="379" y="596" as="targetPoint" />
            <mxPoint as="offset" />
          </mxGeometry>
        </mxCell>
        <mxCell id="CavwSXmpKCnvgIxQiqFj-307" value="/pacmod/**" style="edgeStyle=orthogonalEdgeStyle;rounded=0;comic=0;orthogonalLoop=1;jettySize=auto;html=1;fillColor=#f5f5f5;strokeColor=#666666;exitX=0.5;exitY=1;exitDx=0;exitDy=0;startArrow=classic;startFill=1;entryX=0.5;entryY=0;entryDx=0;entryDy=0;" parent="1" source="CavwSXmpKCnvgIxQiqFj-305" target="CavwSXmpKCnvgIxQiqFj-308" edge="1">
          <mxGeometry x="0.1429" relative="1" as="geometry">
            <mxPoint x="479" y="816" as="sourcePoint" />
            <mxPoint as="offset" />
            <mxPoint x="479" y="876" as="targetPoint" />
          </mxGeometry>
        </mxCell>
        <UserObject label="&lt;b&gt;pacmod3&lt;/b&gt;" link="http://wiki.ros.org/pacmod3" id="CavwSXmpKCnvgIxQiqFj-308">
          <mxCell style="rounded=1;whiteSpace=wrap;html=1;comic=0;fillColor=#f5f5f5;strokeColor=#666666;fontColor=#333333;sketch=0;" parent="1" vertex="1">
            <mxGeometry x="545" y="886" width="120" height="40" as="geometry" />
          </mxCell>
        </UserObject>
        <UserObject label="&lt;b&gt;system_monitors&lt;/b&gt;" link="https://github.com/autowarefoundation/autoware.universe/tree/main/system/system_monitor#system-monitor-for-autoware" tooltip="各々データを監視し、異常があればdiagで通知します" linkTarget="_blank" id="CavwSXmpKCnvgIxQiqFj-309">
          <mxCell style="rounded=1;whiteSpace=wrap;html=1;comic=0;fillColor=#f8cecc;strokeColor=#b85450;verticalAlign=top;sketch=0;" parent="1" vertex="1">
            <mxGeometry x="1707" y="-495.5" width="180" height="350" as="geometry" />
          </mxCell>
        </UserObject>
        <UserObject label="autoware_process_&lt;br&gt;monitor" id="CavwSXmpKCnvgIxQiqFj-310">
          <mxCell style="rounded=1;whiteSpace=wrap;html=1;comic=0;fillColor=#f8cecc;strokeColor=#b85450;sketch=0;" parent="1" vertex="1">
            <mxGeometry x="1737" y="-465.5" width="120" height="40" as="geometry" />
          </mxCell>
        </UserObject>
        <mxCell id="CavwSXmpKCnvgIxQiqFj-311" value="autoware_gpu_&lt;br&gt;monitor" style="rounded=1;whiteSpace=wrap;html=1;comic=0;fillColor=#f8cecc;strokeColor=#b85450;sketch=0;" parent="1" vertex="1">
          <mxGeometry x="1737" y="-415.5" width="120" height="40" as="geometry" />
        </mxCell>
        <mxCell id="CavwSXmpKCnvgIxQiqFj-312" value="autoware_mem_&lt;br&gt;monitor" style="rounded=1;whiteSpace=wrap;html=1;comic=0;fillColor=#f8cecc;strokeColor=#b85450;sketch=0;" parent="1" vertex="1">
          <mxGeometry x="1737" y="-365.5" width="120" height="40" as="geometry" />
        </mxCell>
        <mxCell id="CavwSXmpKCnvgIxQiqFj-313" value="autoware_hdd_&lt;br&gt;monitor" style="rounded=1;whiteSpace=wrap;html=1;comic=0;fillColor=#f8cecc;strokeColor=#b85450;sketch=0;" parent="1" vertex="1">
          <mxGeometry x="1737" y="-311" width="120" height="40" as="geometry" />
        </mxCell>
        <mxCell id="CavwSXmpKCnvgIxQiqFj-314" value="autoware_net_&lt;br&gt;monitor" style="rounded=1;whiteSpace=wrap;html=1;comic=0;fillColor=#f8cecc;strokeColor=#b85450;sketch=0;" parent="1" vertex="1">
          <mxGeometry x="1737" y="-260.5" width="120" height="40" as="geometry" />
        </mxCell>
        <mxCell id="CavwSXmpKCnvgIxQiqFj-315" value="autoware_ntp_&lt;br&gt;monitor" style="rounded=1;whiteSpace=wrap;html=1;comic=0;fillColor=#f8cecc;strokeColor=#b85450;sketch=0;" parent="1" vertex="1">
          <mxGeometry x="1737" y="-205.5" width="120" height="40" as="geometry" />
        </mxCell>
        <mxCell id="CavwSXmpKCnvgIxQiqFj-316" value="/system/emergency/hazard_status" style="edgeStyle=orthogonalEdgeStyle;rounded=0;comic=0;orthogonalLoop=1;jettySize=auto;html=1;entryX=0.5;entryY=1;entryDx=0;entryDy=0;endArrow=classic;endFill=1;exitX=0.5;exitY=0;exitDx=0;exitDy=0;" parent="1" source="CavwSXmpKCnvgIxQiqFj-317" target="CavwSXmpKCnvgIxQiqFj-319" edge="1">
          <mxGeometry x="-0.0769" relative="1" as="geometry">
            <mxPoint as="offset" />
            <Array as="points">
              <mxPoint x="1467" y="-403.5" />
              <mxPoint x="1467" y="-403.5" />
            </Array>
          </mxGeometry>
        </mxCell>
        <UserObject label="&lt;b&gt;system_error_&lt;/b&gt;&lt;br&gt;&lt;b&gt;monitor&lt;/b&gt;" link="https://github.com/autowarefoundation/autoware.universe/tree/main/system/system_error_monitor#system_error_monitor" linkTarget="_blank" id="CavwSXmpKCnvgIxQiqFj-317">
          <mxCell style="rounded=1;whiteSpace=wrap;html=1;comic=0;fillColor=#f8cecc;strokeColor=#b85450;sketch=0;" parent="1" vertex="1">
            <mxGeometry x="1407" y="-342.5" width="120" height="90" as="geometry" />
          </mxCell>
        </UserObject>
        <mxCell id="CavwSXmpKCnvgIxQiqFj-318" value="&lt;div&gt;&lt;/div&gt;" style="edgeStyle=orthogonalEdgeStyle;rounded=0;comic=0;orthogonalLoop=1;jettySize=auto;html=1;endArrow=classic;endFill=1;exitX=0;exitY=0.5;exitDx=0;exitDy=0;align=left;entryX=1;entryY=0.75;entryDx=0;entryDy=0;" parent="1" source="CavwSXmpKCnvgIxQiqFj-319" target="CavwSXmpKCnvgIxQiqFj-293" edge="1">
          <mxGeometry x="-0.384" y="-14" relative="1" as="geometry">
            <mxPoint as="offset" />
            <mxPoint x="240" y="500" as="targetPoint" />
            <Array as="points">
              <mxPoint x="1320" y="-482" />
              <mxPoint x="1320" y="182" />
            </Array>
          </mxGeometry>
        </mxCell>
        <UserObject label="&lt;b&gt;emergency_handler&lt;/b&gt;" link="https://github.com/autowarefoundation/autoware.universe/tree/main/system/emergency_handler#emergency_handler" tooltip="なにかしてます" linkTarget="_blank" id="CavwSXmpKCnvgIxQiqFj-319">
          <mxCell style="rounded=1;whiteSpace=wrap;html=1;comic=0;fillColor=#f8cecc;strokeColor=#b85450;sketch=0;" parent="1" vertex="1">
            <mxGeometry x="1407" y="-502" width="120" height="40" as="geometry" />
          </mxCell>
        </UserObject>
        <mxCell id="CavwSXmpKCnvgIxQiqFj-320" value="&lt;font style=&quot;font-size: 14px;&quot;&gt;&lt;b style=&quot;&quot;&gt;&amp;lt;PLANNING&amp;gt;&lt;/b&gt;&lt;/font&gt;" style="text;html=1;strokeColor=none;fillColor=none;align=center;verticalAlign=middle;whiteSpace=wrap;rounded=0;dashed=1;comic=0;" parent="1" vertex="1">
          <mxGeometry x="-50" y="-575.5" width="80" height="30" as="geometry" />
        </mxCell>
        <mxCell id="CavwSXmpKCnvgIxQiqFj-321" value="&amp;lt;CAN&amp;gt;" style="edgeStyle=orthogonalEdgeStyle;rounded=0;comic=0;orthogonalLoop=1;jettySize=auto;html=1;fillColor=#f5f5f5;strokeColor=#666666;exitX=0.5;exitY=1;exitDx=0;exitDy=0;startArrow=classic;startFill=1;entryX=0.5;entryY=0;entryDx=0;entryDy=0;entryPerimeter=0;" parent="1" source="CavwSXmpKCnvgIxQiqFj-308" target="CavwSXmpKCnvgIxQiqFj-329" edge="1">
          <mxGeometry x="0.1429" relative="1" as="geometry">
            <mxPoint x="755" y="896" as="sourcePoint" />
            <mxPoint as="offset" />
            <mxPoint x="620" y="966" as="targetPoint" />
          </mxGeometry>
        </mxCell>
        <mxCell id="CavwSXmpKCnvgIxQiqFj-322" value="&lt;b&gt;&lt;font style=&quot;font-size: 14px;&quot;&gt;&amp;lt;CONTROL&amp;gt;&lt;/font&gt;&lt;/b&gt;" style="text;html=1;strokeColor=none;fillColor=none;align=center;verticalAlign=middle;whiteSpace=wrap;rounded=0;dashed=1;comic=0;" parent="1" vertex="1">
          <mxGeometry x="1000" y="-528" width="80" height="20" as="geometry" />
        </mxCell>
        <mxCell id="CavwSXmpKCnvgIxQiqFj-323" value="&lt;font style=&quot;font-size: 14px;&quot;&gt;&lt;b style=&quot;&quot;&gt;&amp;lt;SENSING&amp;gt;&lt;/b&gt;&lt;/font&gt;" style="text;html=1;strokeColor=none;fillColor=none;align=center;verticalAlign=middle;whiteSpace=wrap;rounded=0;dashed=1;comic=0;" parent="1" vertex="1">
          <mxGeometry x="-1515" y="-570" width="80" height="30" as="geometry" />
        </mxCell>
        <mxCell id="CavwSXmpKCnvgIxQiqFj-324" value="&lt;b&gt;&lt;font style=&quot;font-size: 14px;&quot;&gt;&amp;lt;VEHICLE&amp;gt;&lt;/font&gt;&lt;/b&gt;" style="text;html=1;strokeColor=none;fillColor=none;align=center;verticalAlign=middle;whiteSpace=wrap;rounded=0;dashed=1;comic=0;" parent="1" vertex="1">
          <mxGeometry x="915" y="475" width="80" height="20" as="geometry" />
        </mxCell>
        <mxCell id="CavwSXmpKCnvgIxQiqFj-325" style="edgeStyle=orthogonalEdgeStyle;rounded=0;orthogonalLoop=1;jettySize=auto;html=1;exitX=0.25;exitY=1;exitDx=0;exitDy=0;entryX=1;entryY=0.5;entryDx=0;entryDy=0;" parent="1" source="CavwSXmpKCnvgIxQiqFj-327" target="CavwSXmpKCnvgIxQiqFj-467" edge="1">
          <mxGeometry relative="1" as="geometry">
            <Array as="points">
              <mxPoint x="730" y="-800" />
              <mxPoint x="130" y="-800" />
              <mxPoint x="130" y="680" />
            </Array>
          </mxGeometry>
        </mxCell>
        <mxCell id="CavwSXmpKCnvgIxQiqFj-326" value="/planning/scenario_planning/max_velocity_candidates&lt;br style=&quot;border-color: var(--border-color);&quot;&gt;[tier4_planning_msgs/msg/VelocityLimit]" style="edgeLabel;html=1;align=center;verticalAlign=middle;resizable=0;points=[];rotation=90;" parent="CavwSXmpKCnvgIxQiqFj-325" vertex="1" connectable="0">
          <mxGeometry x="0.7069" y="4" relative="1" as="geometry">
            <mxPoint as="offset" />
          </mxGeometry>
        </mxCell>
        <mxCell id="CavwSXmpKCnvgIxQiqFj-327" value="&lt;b&gt;RVIZ / HMI&lt;/b&gt;" style="rounded=1;whiteSpace=wrap;html=1;fillColor=#b1ddf0;strokeColor=#10739e;" parent="1" vertex="1">
          <mxGeometry x="700" y="-1250" width="120" height="40" as="geometry" />
        </mxCell>
        <mxCell id="CavwSXmpKCnvgIxQiqFj-328" value="&lt;b&gt;&lt;font style=&quot;font-size: 14px;&quot;&gt;&amp;lt;SYSTEM&amp;gt;&lt;/font&gt;&lt;/b&gt;" style="text;html=1;strokeColor=none;fillColor=none;align=center;verticalAlign=middle;whiteSpace=wrap;rounded=0;dashed=1;comic=0;" parent="1" vertex="1">
          <mxGeometry x="1837" y="-565.5" width="80" height="20" as="geometry" />
        </mxCell>
        <mxCell id="CavwSXmpKCnvgIxQiqFj-329" value="" style="shape=mxgraph.signs.transportation.car_4;html=1;pointerEvents=1;fillColor=#000000;strokeColor=none;verticalLabelPosition=bottom;verticalAlign=top;align=center;dashed=1;strokeWidth=3;fontSize=12;fontColor=#000000;" parent="1" vertex="1">
          <mxGeometry x="557" y="1006" width="98" height="86" as="geometry" />
        </mxCell>
        <mxCell id="CavwSXmpKCnvgIxQiqFj-330" value="/autoware/state" style="edgeStyle=orthogonalEdgeStyle;rounded=0;jumpStyle=arc;orthogonalLoop=1;jettySize=auto;html=1;labelBackgroundColor=none;" parent="1" source="CavwSXmpKCnvgIxQiqFj-334" edge="1">
          <mxGeometry relative="1" as="geometry">
            <mxPoint x="1517" y="140.49999999999955" as="targetPoint" />
          </mxGeometry>
        </mxCell>
        <mxCell id="CavwSXmpKCnvgIxQiqFj-331" value="/autoware/engage" style="edgeStyle=orthogonalEdgeStyle;rounded=0;jumpStyle=arc;orthogonalLoop=1;jettySize=auto;html=1;exitX=0;exitY=0.5;exitDx=0;exitDy=0;labelBackgroundColor=none;" parent="1" source="CavwSXmpKCnvgIxQiqFj-334" edge="1">
          <mxGeometry x="0.365" y="-10" relative="1" as="geometry">
            <mxPoint x="1427" y="140.49999999999955" as="targetPoint" />
            <Array as="points">
              <mxPoint x="1427" y="44.5" />
            </Array>
            <mxPoint as="offset" />
          </mxGeometry>
        </mxCell>
        <mxCell id="CavwSXmpKCnvgIxQiqFj-332" style="edgeStyle=orthogonalEdgeStyle;rounded=0;jumpStyle=arc;orthogonalLoop=1;jettySize=auto;html=1;labelBackgroundColor=none;" parent="1" source="CavwSXmpKCnvgIxQiqFj-334" edge="1">
          <mxGeometry relative="1" as="geometry">
            <mxPoint x="1617" y="140.49999999999955" as="targetPoint" />
          </mxGeometry>
        </mxCell>
        <mxCell id="CavwSXmpKCnvgIxQiqFj-333" value="/diagnostics" style="edgeLabel;html=1;align=center;verticalAlign=middle;resizable=0;points=[];" parent="CavwSXmpKCnvgIxQiqFj-332" vertex="1" connectable="0">
          <mxGeometry x="-0.0048" relative="1" as="geometry">
            <mxPoint y="28" as="offset" />
          </mxGeometry>
        </mxCell>
        <UserObject label="&lt;b&gt;component_state_monitor&lt;/b&gt;" link="https://github.com/tier4/autoware.iv/tree/master/system/autoware_state_monitor" tooltip="なにかしてます" id="CavwSXmpKCnvgIxQiqFj-334">
          <mxCell style="rounded=1;whiteSpace=wrap;html=1;comic=0;fillColor=#f8cecc;strokeColor=#b85450;sketch=0;overflow=width;" parent="1" vertex="1">
            <mxGeometry x="1457" y="24.5" width="120" height="40" as="geometry" />
          </mxCell>
        </UserObject>
        <mxCell id="CavwSXmpKCnvgIxQiqFj-335" value="&amp;nbsp; &amp;nbsp; /control/command/control_cmd&lt;br&gt;&amp;nbsp; &amp;nbsp; /control/trajectory_follower/control_cmd&lt;br&gt;&amp;nbsp; &amp;nbsp; /initialpose3d&lt;br&gt;&amp;nbsp; &amp;nbsp; /localization/kinematic_state&lt;br&gt;&amp;nbsp; &amp;nbsp; /map/pointcloud_map&lt;br&gt;&amp;nbsp; &amp;nbsp; /map/vector_map&lt;br&gt;&amp;nbsp; &amp;nbsp; /perception/object_recognition/objects&lt;br&gt;&amp;nbsp; &amp;nbsp; /planning/mission_planning/route&lt;br&gt;&amp;nbsp; &amp;nbsp; /planning/scenario_planning/trajectory&lt;br&gt;&amp;nbsp; &amp;nbsp; /system/emergency/control_cmd&lt;br&gt;&amp;nbsp; &amp;nbsp; /vehicle/status/control_mode&lt;br&gt;&amp;nbsp; &amp;nbsp; /vehicle/status/steering_status&lt;br&gt;&amp;nbsp; &amp;nbsp; /vehicle/status/velocity_status" style="endArrow=classic;html=1;rounded=0;labelBackgroundColor=none;jumpStyle=arc;entryX=0.5;entryY=0;entryDx=0;entryDy=0;" parent="1" target="CavwSXmpKCnvgIxQiqFj-334" edge="1">
          <mxGeometry x="-0.3023" y="30" width="50" height="50" relative="1" as="geometry">
            <mxPoint x="1887" y="-35.5" as="sourcePoint" />
            <mxPoint x="1307" y="-115.5" as="targetPoint" />
            <Array as="points">
              <mxPoint x="1517" y="-35.5" />
            </Array>
            <mxPoint as="offset" />
          </mxGeometry>
        </mxCell>
        <mxCell id="CavwSXmpKCnvgIxQiqFj-336" value="&lt;div style=&quot;text-align: left;&quot;&gt;/system/emergency/control_cmd [AckermannControlCommand]&lt;/div&gt;&lt;div style=&quot;text-align: left;&quot;&gt;/system/emergency/gear_cmd [GearCommand]&lt;/div&gt;&lt;div style=&quot;text-align: left;&quot;&gt;/system/emergency/hazard_lights_cmd [HazardLightsCommand]&lt;/div&gt;&lt;span style=&quot;text-align: left;&quot;&gt;/system/emergency/emergency_state&amp;nbsp;[EmergencyStateStamped]&lt;/span&gt;&lt;div style=&quot;text-align: left&quot;&gt;&lt;/div&gt;" style="edgeLabel;html=1;align=center;verticalAlign=middle;resizable=0;points=[];fontColor=default;rotation=90;" parent="1" vertex="1" connectable="0">
          <mxGeometry x="1330" y="-252.5" as="geometry" />
        </mxCell>
        <mxCell id="CavwSXmpKCnvgIxQiqFj-337" value="&lt;span style=&quot;font-size: 14px;&quot;&gt;&lt;b&gt;&amp;lt;LOCALIZATION&amp;gt;&lt;/b&gt;&lt;/span&gt;" style="text;html=1;strokeColor=none;fillColor=none;align=center;verticalAlign=middle;whiteSpace=wrap;rounded=0;dashed=1;comic=0;" parent="1" vertex="1">
          <mxGeometry x="-1769" y="-120" width="80" height="30" as="geometry" />
        </mxCell>
        <mxCell id="CavwSXmpKCnvgIxQiqFj-338" style="edgeStyle=orthogonalEdgeStyle;rounded=0;orthogonalLoop=1;jettySize=auto;html=1;exitX=1;exitY=0.5;exitDx=0;exitDy=0;" parent="1" source="CavwSXmpKCnvgIxQiqFj-340" edge="1">
          <mxGeometry relative="1" as="geometry">
            <mxPoint x="-1428" y="56" as="targetPoint" />
            <Array as="points">
              <mxPoint x="-1428" y="56" />
            </Array>
          </mxGeometry>
        </mxCell>
        <mxCell id="CavwSXmpKCnvgIxQiqFj-339" value="/localization/acceleration&lt;br&gt;[geometry_msgs::msg::AccelWithCovarianceStamped}" style="edgeLabel;html=1;align=center;verticalAlign=middle;resizable=0;points=[];" parent="CavwSXmpKCnvgIxQiqFj-338" vertex="1" connectable="0">
          <mxGeometry x="-0.1484" y="-2" relative="1" as="geometry">
            <mxPoint x="18" y="-24" as="offset" />
          </mxGeometry>
        </mxCell>
        <UserObject label="&lt;b&gt;twist2Accel&lt;/b&gt;" tooltip="Overwrite vx=0 and wz=0 when the vehicle wheel speed is zero to indicate the stop condition." link="https://github.com/autowarefoundation/autoware.universe/tree/main/localization/stop_filter#stop_filter" linkTarget="_blank" id="CavwSXmpKCnvgIxQiqFj-340">
          <mxCell style="rounded=1;whiteSpace=wrap;html=1;comic=0;fillColor=#dae8fc;strokeColor=#6c8ebf;sketch=0;" parent="1" vertex="1">
            <mxGeometry x="-1889" y="36.25" width="120" height="40" as="geometry" />
          </mxCell>
        </UserObject>
        <mxCell id="CavwSXmpKCnvgIxQiqFj-341" value="" style="edgeStyle=orthogonalEdgeStyle;rounded=0;orthogonalLoop=1;jettySize=auto;html=1;exitX=0.5;exitY=1;exitDx=0;exitDy=0;comic=0;entryX=0;entryY=0.5;entryDx=0;entryDy=0;" parent="1" source="CavwSXmpKCnvgIxQiqFj-261" target="CavwSXmpKCnvgIxQiqFj-340" edge="1">
          <mxGeometry relative="1" as="geometry">
            <mxPoint x="-1978" y="531" as="targetPoint" />
            <Array as="points">
              <mxPoint x="-2013" y="56" />
            </Array>
            <mxPoint x="-1978" y="291" as="sourcePoint" />
          </mxGeometry>
        </mxCell>
        <object label="&lt;b&gt;gnss_poser&lt;/b&gt;" desc="MGRS座標系への変換" tooltip="gnssのdriverです" link="https://github.com/autowarefoundation/autoware.universe/tree/main/sensing/gnss_poser#gnss_poser" linkTarget="_blank" id="CavwSXmpKCnvgIxQiqFj-342">
          <mxCell style="rounded=1;whiteSpace=wrap;html=1;comic=0;strokeColor=#9673a6;fillColor=#e1d5e7;sketch=0;" parent="1" vertex="1">
            <mxGeometry x="-2005" y="-351.25" width="120" height="40" as="geometry" />
          </mxCell>
        </object>
        <mxCell id="CavwSXmpKCnvgIxQiqFj-343" value="/api/routing/route" style="edgeStyle=none;html=1;exitX=0;exitY=0.5;exitDx=0;exitDy=0;rounded=0;" parent="1" source="CavwSXmpKCnvgIxQiqFj-344" edge="1">
          <mxGeometry x="0.5161" y="-9" relative="1" as="geometry">
            <mxPoint x="-359" y="-1310" as="targetPoint" />
            <Array as="points">
              <mxPoint x="-359" y="-993" />
            </Array>
            <mxPoint as="offset" />
          </mxGeometry>
        </mxCell>
        <mxCell id="CavwSXmpKCnvgIxQiqFj-344" value="&lt;b&gt;/default_ad_api/node/routing&lt;/b&gt;" style="rounded=1;whiteSpace=wrap;html=1;fillColor=#bac8d3;strokeColor=#23445d;" parent="1" vertex="1">
          <mxGeometry x="-304" y="-1013" width="315" height="40" as="geometry" />
        </mxCell>
        <mxCell id="CavwSXmpKCnvgIxQiqFj-345" value="" style="endArrow=classic;html=1;dashed=1;rounded=0;entryX=0.75;entryY=0;entryDx=0;entryDy=0;" parent="1" edge="1">
          <mxGeometry width="50" height="50" relative="1" as="geometry">
            <mxPoint x="261" y="-899" as="sourcePoint" />
            <mxPoint x="-22.25" y="-854" as="targetPoint" />
            <Array as="points">
              <mxPoint x="-22" y="-899" />
            </Array>
          </mxGeometry>
        </mxCell>
        <mxCell id="CavwSXmpKCnvgIxQiqFj-346" value="/planning/mission_planning/mission_planner/srv/set_mrm_route,&lt;br&gt;&lt;span style=&quot;font-size: 11px;&quot;&gt;/planning/mission_planning/mission_planner/srv/clear_mrm_route&lt;/span&gt;&lt;br&gt;" style="edgeLabel;html=1;align=center;verticalAlign=middle;resizable=0;points=[];" parent="CavwSXmpKCnvgIxQiqFj-345" vertex="1" connectable="0">
          <mxGeometry x="-0.6025" relative="1" as="geometry">
            <mxPoint x="-16" as="offset" />
          </mxGeometry>
        </mxCell>
        <mxCell id="CavwSXmpKCnvgIxQiqFj-347" style="edgeStyle=none;html=1;endArrow=none;endFill=0;startArrow=classicThin;startFill=1;exitX=1.009;exitY=0.493;exitDx=0;exitDy=0;exitPerimeter=0;" parent="1" source="CavwSXmpKCnvgIxQiqFj-354" edge="1">
          <mxGeometry relative="1" as="geometry">
            <mxPoint x="126" y="-834" as="targetPoint" />
            <mxPoint x="61" y="-834" as="sourcePoint" />
          </mxGeometry>
        </mxCell>
        <mxCell id="CavwSXmpKCnvgIxQiqFj-348" value="&lt;span style=&quot;font-size: 11px;&quot;&gt;/planning/scenario_planning/modified_goal&lt;/span&gt;" style="edgeLabel;html=1;align=center;verticalAlign=middle;resizable=0;points=[];" parent="CavwSXmpKCnvgIxQiqFj-347" vertex="1" connectable="0">
          <mxGeometry x="0.2965" y="-1" relative="1" as="geometry">
            <mxPoint x="73" y="-16" as="offset" />
          </mxGeometry>
        </mxCell>
        <mxCell id="CavwSXmpKCnvgIxQiqFj-349" style="edgeStyle=orthogonalEdgeStyle;rounded=0;html=1;exitX=0;exitY=0.75;exitDx=0;exitDy=0;entryX=0;entryY=0.5;entryDx=0;entryDy=0;startArrow=none;startFill=0;endArrow=classicThin;endFill=1;jumpStyle=arc;" parent="1" source="CavwSXmpKCnvgIxQiqFj-354" target="CavwSXmpKCnvgIxQiqFj-355" edge="1">
          <mxGeometry relative="1" as="geometry">
            <Array as="points">
              <mxPoint x="-434" y="-824" />
              <mxPoint x="-434" y="-1148" />
            </Array>
          </mxGeometry>
        </mxCell>
        <mxCell id="CavwSXmpKCnvgIxQiqFj-350" value="/planning/mission_planning/goal,&lt;br&gt;&lt;span style=&quot;font-size: 11px;&quot;&gt;/planning/mission_planning/checkpoint&lt;/span&gt;" style="edgeLabel;html=1;align=center;verticalAlign=middle;resizable=0;points=[];" parent="CavwSXmpKCnvgIxQiqFj-349" vertex="1" connectable="0">
          <mxGeometry x="-0.1223" y="-3" relative="1" as="geometry">
            <mxPoint x="-2" y="-118" as="offset" />
          </mxGeometry>
        </mxCell>
        <mxCell id="CavwSXmpKCnvgIxQiqFj-351" value="/planning/mission_planning/&lt;br&gt;route_state" style="edgeStyle=none;rounded=0;jumpStyle=arc;html=1;exitX=0;exitY=0.25;exitDx=0;exitDy=0;entryX=0;entryY=0.75;entryDx=0;entryDy=0;startArrow=none;startFill=0;endArrow=classicThin;endFill=1;" parent="1" source="CavwSXmpKCnvgIxQiqFj-354" target="CavwSXmpKCnvgIxQiqFj-344" edge="1">
          <mxGeometry x="-0.2571" relative="1" as="geometry">
            <Array as="points">
              <mxPoint x="-359" y="-844" />
              <mxPoint x="-359" y="-983" />
            </Array>
            <mxPoint as="offset" />
          </mxGeometry>
        </mxCell>
        <mxCell id="CavwSXmpKCnvgIxQiqFj-352" style="edgeStyle=orthogonalEdgeStyle;rounded=0;orthogonalLoop=1;jettySize=auto;html=1;entryX=0.5;entryY=0;entryDx=0;entryDy=0;exitX=0.41;exitY=1.005;exitDx=0;exitDy=0;exitPerimeter=0;" parent="1" source="CavwSXmpKCnvgIxQiqFj-354" target="CavwSXmpKCnvgIxQiqFj-473" edge="1">
          <mxGeometry relative="1" as="geometry">
            <mxPoint x="-147" y="-814" as="sourcePoint" />
            <Array as="points">
              <mxPoint x="-171" y="-814" />
              <mxPoint x="-171" y="-740" />
              <mxPoint x="240" y="-740" />
            </Array>
          </mxGeometry>
        </mxCell>
        <mxCell id="CavwSXmpKCnvgIxQiqFj-353" style="edgeStyle=orthogonalEdgeStyle;rounded=0;orthogonalLoop=1;jettySize=auto;html=1;entryX=0;entryY=0.5;entryDx=0;entryDy=0;exitX=0.421;exitY=1.05;exitDx=0;exitDy=0;exitPerimeter=0;" parent="1" source="CavwSXmpKCnvgIxQiqFj-354" target="CavwSXmpKCnvgIxQiqFj-432" edge="1">
          <mxGeometry relative="1" as="geometry">
            <mxPoint x="-169" y="-820" as="sourcePoint" />
            <Array as="points">
              <mxPoint x="-169" y="-812" />
              <mxPoint x="-169" y="-740" />
              <mxPoint x="-610" y="-740" />
              <mxPoint x="-610" y="640" />
            </Array>
          </mxGeometry>
        </mxCell>
        <UserObject label="&lt;b&gt;mission_planner&lt;/b&gt;" tooltip="高精度地図情報をもとに、自己位置からゴールまでのルートを計算します。" link="https://github.com/autowarefoundation/autoware.universe/tree/main/planning/mission_planner" id="CavwSXmpKCnvgIxQiqFj-354">
          <mxCell style="rounded=1;whiteSpace=wrap;html=1;comic=0;fillColor=#fff2cc;strokeColor=#d6b656;sketch=0;shadow=0;" parent="1" vertex="1">
            <mxGeometry x="-308" y="-854" width="321" height="40" as="geometry" />
          </mxCell>
        </UserObject>
        <mxCell id="CavwSXmpKCnvgIxQiqFj-355" value="&lt;b&gt;/default_ad_api/helpers/&lt;br&gt;routing_adaptor&lt;/b&gt;" style="rounded=1;whiteSpace=wrap;html=1;fillColor=#eeeeee;strokeColor=#36393d;" parent="1" vertex="1">
          <mxGeometry x="-304" y="-1168" width="199" height="40" as="geometry" />
        </mxCell>
        <mxCell id="CavwSXmpKCnvgIxQiqFj-356" value="/planning/mission_planning/set_route,&lt;br&gt;&lt;span style=&quot;font-size: 11px;&quot;&gt;/planning/mission_planning/set_route_points,&lt;br&gt;&lt;/span&gt;/planning/mission_planning/clear_route&lt;span style=&quot;font-size: 11px;&quot;&gt;&lt;br&gt;&lt;/span&gt;" style="endArrow=classic;html=1;dashed=1;exitX=0.27;exitY=0.976;exitDx=0;exitDy=0;exitPerimeter=0;" parent="1" edge="1">
          <mxGeometry x="-0.3504" width="50" height="50" relative="1" as="geometry">
            <mxPoint x="-218.94999999999982" y="-972.9599999999998" as="sourcePoint" />
            <mxPoint x="-219" y="-853" as="targetPoint" />
            <mxPoint as="offset" />
          </mxGeometry>
        </mxCell>
        <mxCell id="CavwSXmpKCnvgIxQiqFj-357" value="" style="endArrow=classic;html=1;dashed=1;rounded=0;entryX=0.75;entryY=0;entryDx=0;entryDy=0;exitX=0.75;exitY=1;exitDx=0;exitDy=0;" parent="1" source="CavwSXmpKCnvgIxQiqFj-344" target="CavwSXmpKCnvgIxQiqFj-354" edge="1">
          <mxGeometry width="50" height="50" relative="1" as="geometry">
            <mxPoint x="216" y="-944" as="sourcePoint" />
            <mxPoint x="-44" y="-854" as="targetPoint" />
          </mxGeometry>
        </mxCell>
        <mxCell id="CavwSXmpKCnvgIxQiqFj-358" value="/planning/mission_planning/change_route,&lt;br&gt;&lt;span style=&quot;font-size: 11px;&quot;&gt;/planning/mission_planning/change_route_points&lt;/span&gt;" style="edgeLabel;html=1;align=center;verticalAlign=middle;resizable=0;points=[];" parent="CavwSXmpKCnvgIxQiqFj-357" vertex="1" connectable="0">
          <mxGeometry x="-0.6025" relative="1" as="geometry">
            <mxPoint x="93" y="10" as="offset" />
          </mxGeometry>
        </mxCell>
        <mxCell id="CavwSXmpKCnvgIxQiqFj-359" value="&lt;span style=&quot;font-size: 11px;&quot;&gt;/api/routing/set_route&lt;br&gt;&lt;/span&gt;" style="endArrow=classic;html=1;dashed=1;startArrow=oval;startFill=0;" parent="1" edge="1">
          <mxGeometry x="0.2903" width="50" height="50" relative="1" as="geometry">
            <mxPoint x="-14" y="-1168" as="sourcePoint" />
            <mxPoint x="-14" y="-1013" as="targetPoint" />
            <mxPoint as="offset" />
          </mxGeometry>
        </mxCell>
        <mxCell id="CavwSXmpKCnvgIxQiqFj-360" value="" style="endArrow=classic;html=1;dashed=1;startArrow=oval;startFill=0;" parent="1" edge="1">
          <mxGeometry x="0.4194" width="50" height="50" relative="1" as="geometry">
            <mxPoint x="-74" y="-1168" as="sourcePoint" />
            <mxPoint x="-74" y="-1013" as="targetPoint" />
          </mxGeometry>
        </mxCell>
        <mxCell id="CavwSXmpKCnvgIxQiqFj-361" value="/api/routing/change_route" style="edgeLabel;html=1;align=center;verticalAlign=middle;resizable=0;points=[];" parent="CavwSXmpKCnvgIxQiqFj-360" vertex="1" connectable="0">
          <mxGeometry x="-0.5659" y="-2" relative="1" as="geometry">
            <mxPoint x="1" y="31" as="offset" />
          </mxGeometry>
        </mxCell>
        <mxCell id="CavwSXmpKCnvgIxQiqFj-362" style="rounded=0;html=1;startArrow=none;startFill=0;endArrow=classicThin;endFill=1;exitX=1;exitY=0.25;exitDx=0;exitDy=0;" parent="1" source="CavwSXmpKCnvgIxQiqFj-344" edge="1">
          <mxGeometry relative="1" as="geometry">
            <mxPoint x="186" y="-1003" as="targetPoint" />
          </mxGeometry>
        </mxCell>
        <mxCell id="CavwSXmpKCnvgIxQiqFj-363" value="/system/operation_mode/change_operation_mode" style="edgeLabel;html=1;align=center;verticalAlign=middle;resizable=0;points=[];" parent="CavwSXmpKCnvgIxQiqFj-362" vertex="1" connectable="0">
          <mxGeometry x="0.7838" y="3" relative="1" as="geometry">
            <mxPoint x="-11" y="-12" as="offset" />
          </mxGeometry>
        </mxCell>
        <mxCell id="CavwSXmpKCnvgIxQiqFj-364" value="" style="endArrow=classic;html=1;dashed=1;exitX=0.805;exitY=1.006;exitDx=0;exitDy=0;exitPerimeter=0;" parent="1" source="CavwSXmpKCnvgIxQiqFj-355" edge="1">
          <mxGeometry width="50" height="50" relative="1" as="geometry">
            <mxPoint x="-147.69" y="-1073" as="sourcePoint" />
            <mxPoint x="-144" y="-1013" as="targetPoint" />
          </mxGeometry>
        </mxCell>
        <mxCell id="CavwSXmpKCnvgIxQiqFj-365" value="/api/routing/clear_route" style="edgeLabel;html=1;align=center;verticalAlign=middle;resizable=0;points=[];" parent="CavwSXmpKCnvgIxQiqFj-364" vertex="1" connectable="0">
          <mxGeometry x="-0.3188" y="-1" relative="1" as="geometry">
            <mxPoint x="1" y="51" as="offset" />
          </mxGeometry>
        </mxCell>
        <mxCell id="CavwSXmpKCnvgIxQiqFj-366" value="&lt;span style=&quot;font-size: 11px;&quot;&gt;/api/routing/&lt;br&gt;set_route_points&lt;/span&gt;" style="endArrow=classic;html=1;dashed=1;exitX=0.206;exitY=1.032;exitDx=0;exitDy=0;exitPerimeter=0;entryX=0.131;entryY=-0.004;entryDx=0;entryDy=0;entryPerimeter=0;" parent="1" source="CavwSXmpKCnvgIxQiqFj-355" target="CavwSXmpKCnvgIxQiqFj-344" edge="1">
          <mxGeometry x="-0.5823" y="-1" width="50" height="50" relative="1" as="geometry">
            <mxPoint x="-284" y="-1073" as="sourcePoint" />
            <mxPoint x="-267" y="-1018" as="targetPoint" />
            <mxPoint as="offset" />
          </mxGeometry>
        </mxCell>
        <mxCell id="CavwSXmpKCnvgIxQiqFj-367" value="" style="endArrow=classic;html=1;dashed=1;exitX=0.5;exitY=1;exitDx=0;exitDy=0;entryX=0.318;entryY=0.002;entryDx=0;entryDy=0;entryPerimeter=0;" parent="1" source="CavwSXmpKCnvgIxQiqFj-355" target="CavwSXmpKCnvgIxQiqFj-344" edge="1">
          <mxGeometry width="50" height="50" relative="1" as="geometry">
            <mxPoint x="-208.61" y="-1073" as="sourcePoint" />
            <mxPoint x="-208.61" y="-1013" as="targetPoint" />
          </mxGeometry>
        </mxCell>
        <mxCell id="CavwSXmpKCnvgIxQiqFj-368" value="/api/routing/&lt;br&gt;change_route_points" style="edgeLabel;html=1;align=center;verticalAlign=middle;resizable=0;points=[];labelBackgroundColor=default;" parent="CavwSXmpKCnvgIxQiqFj-367" vertex="1" connectable="0">
          <mxGeometry x="-0.3188" y="-1" relative="1" as="geometry">
            <mxPoint x="1" y="21" as="offset" />
          </mxGeometry>
        </mxCell>
        <mxCell id="CavwSXmpKCnvgIxQiqFj-369" value="" style="endArrow=classic;html=1;rounded=0;jumpStyle=arc;" parent="1" edge="1">
          <mxGeometry width="50" height="50" relative="1" as="geometry">
            <mxPoint x="-206" y="-1249" as="sourcePoint" />
            <mxPoint x="-206" y="-1168" as="targetPoint" />
          </mxGeometry>
        </mxCell>
        <mxCell id="CavwSXmpKCnvgIxQiqFj-370" value="/rviz/routing/&lt;br&gt;rough_goal" style="edgeLabel;html=1;align=center;verticalAlign=middle;resizable=0;points=[];" parent="CavwSXmpKCnvgIxQiqFj-369" vertex="1" connectable="0">
          <mxGeometry x="-0.4273" y="-2" relative="1" as="geometry">
            <mxPoint x="-12" y="5" as="offset" />
          </mxGeometry>
        </mxCell>
        <mxCell id="CavwSXmpKCnvgIxQiqFj-371" value="" style="endArrow=classic;html=1;rounded=0;jumpStyle=arc;" parent="1" edge="1">
          <mxGeometry width="50" height="50" relative="1" as="geometry">
            <mxPoint x="-145.00000000000045" y="-1248.9999999999998" as="sourcePoint" />
            <mxPoint x="-145.00000000000045" y="-1168" as="targetPoint" />
          </mxGeometry>
        </mxCell>
        <mxCell id="CavwSXmpKCnvgIxQiqFj-372" value="/rviz/routing/reroute" style="edgeLabel;html=1;align=center;verticalAlign=middle;resizable=0;points=[];" parent="CavwSXmpKCnvgIxQiqFj-371" vertex="1" connectable="0">
          <mxGeometry x="-0.4273" y="-2" relative="1" as="geometry">
            <mxPoint x="8" y="37" as="offset" />
          </mxGeometry>
        </mxCell>
        <mxCell id="CavwSXmpKCnvgIxQiqFj-373" style="edgeStyle=orthogonalEdgeStyle;rounded=0;orthogonalLoop=1;jettySize=auto;html=1;exitX=0.106;exitY=1.021;exitDx=0;exitDy=0;entryX=0.25;entryY=0;entryDx=0;entryDy=0;exitPerimeter=0;" parent="1" source="CavwSXmpKCnvgIxQiqFj-379" target="CavwSXmpKCnvgIxQiqFj-268" edge="1">
          <mxGeometry relative="1" as="geometry">
            <Array as="points">
              <mxPoint x="-1018" y="-680" />
              <mxPoint x="-200" y="-680" />
            </Array>
          </mxGeometry>
        </mxCell>
        <mxCell id="CavwSXmpKCnvgIxQiqFj-374" value="/planning/scenario_planning&lt;br style=&quot;border-color: var(--border-color);&quot;&gt;/scenario" style="edgeLabel;html=1;align=center;verticalAlign=middle;resizable=0;points=[];" parent="CavwSXmpKCnvgIxQiqFj-373" vertex="1" connectable="0">
          <mxGeometry x="0.2192" y="-6" relative="1" as="geometry">
            <mxPoint x="-330" y="-26" as="offset" />
          </mxGeometry>
        </mxCell>
        <mxCell id="CavwSXmpKCnvgIxQiqFj-375" style="edgeStyle=orthogonalEdgeStyle;rounded=0;orthogonalLoop=1;jettySize=auto;html=1;exitX=1;exitY=0.5;exitDx=0;exitDy=0;entryX=0;entryY=0.25;entryDx=0;entryDy=0;" parent="1" source="CavwSXmpKCnvgIxQiqFj-379" target="CavwSXmpKCnvgIxQiqFj-480" edge="1">
          <mxGeometry relative="1" as="geometry">
            <Array as="points">
              <mxPoint x="-770" y="-827" />
              <mxPoint x="-770" y="540" />
            </Array>
          </mxGeometry>
        </mxCell>
        <mxCell id="CavwSXmpKCnvgIxQiqFj-376" value="/rviz2/avp_selected_parking_lot&amp;nbsp; &amp;amp; /rviz2/selected_parkinglot_pose &amp;amp;&amp;nbsp;/rviz2/apa_parking_mode" style="edgeLabel;html=1;align=center;verticalAlign=middle;resizable=0;points=[];rotation=90;" parent="CavwSXmpKCnvgIxQiqFj-375" vertex="1" connectable="0">
          <mxGeometry x="0.2621" y="1" relative="1" as="geometry">
            <mxPoint y="1" as="offset" />
          </mxGeometry>
        </mxCell>
        <mxCell id="CavwSXmpKCnvgIxQiqFj-377" style="edgeStyle=orthogonalEdgeStyle;rounded=0;orthogonalLoop=1;jettySize=auto;html=1;exitX=1;exitY=0.25;exitDx=0;exitDy=0;entryX=0;entryY=0.5;entryDx=0;entryDy=0;" parent="1" source="CavwSXmpKCnvgIxQiqFj-379" target="CavwSXmpKCnvgIxQiqFj-354" edge="1">
          <mxGeometry relative="1" as="geometry" />
        </mxCell>
        <mxCell id="CavwSXmpKCnvgIxQiqFj-378" value="/rviz2/parking_scenario" style="edgeLabel;html=1;align=center;verticalAlign=middle;resizable=0;points=[];" parent="CavwSXmpKCnvgIxQiqFj-377" vertex="1" connectable="0">
          <mxGeometry x="-0.4653" relative="1" as="geometry">
            <mxPoint x="11" y="-3" as="offset" />
          </mxGeometry>
        </mxCell>
        <mxCell id="g-xprRMv2T4vLQJjBPTB-1" style="edgeStyle=orthogonalEdgeStyle;rounded=0;orthogonalLoop=1;jettySize=auto;html=1;exitX=0.107;exitY=0.966;exitDx=0;exitDy=0;entryX=0;entryY=0.75;entryDx=0;entryDy=0;exitPerimeter=0;" edge="1" parent="1" source="CavwSXmpKCnvgIxQiqFj-379" target="CavwSXmpKCnvgIxQiqFj-480">
          <mxGeometry relative="1" as="geometry">
            <Array as="points">
              <mxPoint x="-1018" y="-710" />
              <mxPoint x="-1170" y="-710" />
              <mxPoint x="-1170" y="560" />
            </Array>
          </mxGeometry>
        </mxCell>
        <mxCell id="g-xprRMv2T4vLQJjBPTB-4" value="/planning/scenario_planning&lt;br&gt;/scenario" style="edgeLabel;html=1;align=center;verticalAlign=middle;resizable=0;points=[];rotation=90;" vertex="1" connectable="0" parent="g-xprRMv2T4vLQJjBPTB-1">
          <mxGeometry x="-0.5928" y="-4" relative="1" as="geometry">
            <mxPoint y="-1" as="offset" />
          </mxGeometry>
        </mxCell>
        <mxCell id="g-xprRMv2T4vLQJjBPTB-7" style="edgeStyle=orthogonalEdgeStyle;rounded=0;orthogonalLoop=1;jettySize=auto;html=1;exitX=1;exitY=0.25;exitDx=0;exitDy=0;entryX=0;entryY=0.5;entryDx=0;entryDy=0;" edge="1" parent="1" source="CavwSXmpKCnvgIxQiqFj-379" target="CavwSXmpKCnvgIxQiqFj-480">
          <mxGeometry relative="1" as="geometry">
            <Array as="points">
              <mxPoint x="-660" y="-837" />
              <mxPoint x="-660" y="550" />
            </Array>
          </mxGeometry>
        </mxCell>
        <mxCell id="g-xprRMv2T4vLQJjBPTB-11" value="/rviz2/parking_scenario" style="edgeLabel;html=1;align=center;verticalAlign=middle;resizable=0;points=[];rotation=90;" vertex="1" connectable="0" parent="g-xprRMv2T4vLQJjBPTB-7">
          <mxGeometry x="-0.4587" y="2" relative="1" as="geometry">
            <mxPoint x="8" y="1" as="offset" />
          </mxGeometry>
        </mxCell>
        <mxCell id="g-xprRMv2T4vLQJjBPTB-12" style="edgeStyle=orthogonalEdgeStyle;rounded=0;orthogonalLoop=1;jettySize=auto;html=1;exitX=1;exitY=0.25;exitDx=0;exitDy=0;entryX=0;entryY=0.25;entryDx=0;entryDy=0;" edge="1" parent="1" source="CavwSXmpKCnvgIxQiqFj-379" target="CavwSXmpKCnvgIxQiqFj-432">
          <mxGeometry relative="1" as="geometry">
            <Array as="points">
              <mxPoint x="-660" y="-837" />
              <mxPoint x="-660" y="630" />
            </Array>
          </mxGeometry>
        </mxCell>
        <mxCell id="CavwSXmpKCnvgIxQiqFj-379" value="&lt;b&gt;RVIZ / HMI&lt;/b&gt;" style="rounded=1;whiteSpace=wrap;html=1;fillColor=#b1ddf0;strokeColor=#10739e;" parent="1" vertex="1">
          <mxGeometry x="-1040" y="-847" width="209.5" height="40" as="geometry" />
        </mxCell>
        <mxCell id="CavwSXmpKCnvgIxQiqFj-380" style="edgeStyle=none;rounded=0;jumpStyle=arc;html=1;exitX=1;exitY=0.75;exitDx=0;exitDy=0;startArrow=none;startFill=0;endArrow=classicThin;endFill=1;" parent="1" source="CavwSXmpKCnvgIxQiqFj-344" edge="1">
          <mxGeometry relative="1" as="geometry">
            <mxPoint x="313" y="-966" as="targetPoint" />
          </mxGeometry>
        </mxCell>
        <mxCell id="CavwSXmpKCnvgIxQiqFj-381" value="/api/routing/state" style="edgeLabel;html=1;align=center;verticalAlign=middle;resizable=0;points=[];" parent="CavwSXmpKCnvgIxQiqFj-380" vertex="1" connectable="0">
          <mxGeometry x="-0.2926" y="2" relative="1" as="geometry">
            <mxPoint as="offset" />
          </mxGeometry>
        </mxCell>
        <mxCell id="CavwSXmpKCnvgIxQiqFj-382" value="" style="endArrow=classic;html=1;rounded=0;jumpStyle=arc;exitX=0.25;exitY=1;exitDx=0;exitDy=0;" parent="1" source="CavwSXmpKCnvgIxQiqFj-379" edge="1">
          <mxGeometry width="50" height="50" relative="1" as="geometry">
            <mxPoint x="-980" y="-688.4399999999996" as="sourcePoint" />
            <mxPoint x="-980" y="-231.5599999999999" as="targetPoint" />
          </mxGeometry>
        </mxCell>
        <mxCell id="CavwSXmpKCnvgIxQiqFj-383" value="/rviz/goal" style="edgeLabel;html=1;align=center;verticalAlign=middle;resizable=0;points=[];" parent="CavwSXmpKCnvgIxQiqFj-382" vertex="1" connectable="0">
          <mxGeometry x="-0.4273" y="-2" relative="1" as="geometry">
            <mxPoint x="12" y="89" as="offset" />
          </mxGeometry>
        </mxCell>
        <mxCell id="CavwSXmpKCnvgIxQiqFj-384" style="edgeStyle=orthogonalEdgeStyle;rounded=0;orthogonalLoop=1;jettySize=auto;html=1;exitX=0.5;exitY=1;exitDx=0;exitDy=0;" parent="1" source="CavwSXmpKCnvgIxQiqFj-386" edge="1">
          <mxGeometry relative="1" as="geometry">
            <mxPoint x="-1705.9411764705878" y="-351.25000000000045" as="targetPoint" />
          </mxGeometry>
        </mxCell>
        <mxCell id="CavwSXmpKCnvgIxQiqFj-385" value="/sensing/ultasonic/valeo/freespace" style="edgeLabel;html=1;align=center;verticalAlign=middle;resizable=0;points=[];" parent="CavwSXmpKCnvgIxQiqFj-384" vertex="1" connectable="0">
          <mxGeometry x="-0.2685" y="1" relative="1" as="geometry">
            <mxPoint as="offset" />
          </mxGeometry>
        </mxCell>
        <object label="&lt;b&gt;Valeo_ultrasonics_driver&lt;/b&gt;" desc="MGRS座標系への変換" tooltip="gnssのdriverです" id="CavwSXmpKCnvgIxQiqFj-386">
          <mxCell style="rounded=1;whiteSpace=wrap;html=1;comic=0;strokeColor=#9673a6;fillColor=#e1d5e7;sketch=0;" parent="1" vertex="1">
            <mxGeometry x="-1785" y="-494.25" width="160" height="40" as="geometry" />
          </mxCell>
        </object>
        <mxCell id="CavwSXmpKCnvgIxQiqFj-387" value="" style="rounded=1;whiteSpace=wrap;html=1;dashed=1;fillColor=none;strokeWidth=3;comic=0;" parent="1" vertex="1">
          <mxGeometry x="-1150" y="-300" width="430" height="251.25" as="geometry" />
        </mxCell>
        <mxCell id="CavwSXmpKCnvgIxQiqFj-388" value="&lt;span style=&quot;font-size: 14px;&quot;&gt;&lt;b&gt;&amp;lt;PERCEPTION&amp;gt;&lt;/b&gt;&lt;/span&gt;" style="text;html=1;strokeColor=none;fillColor=none;align=center;verticalAlign=middle;whiteSpace=wrap;rounded=0;dashed=1;comic=0;" parent="1" vertex="1">
          <mxGeometry x="-1120" y="-290.5" width="80" height="30" as="geometry" />
        </mxCell>
        <mxCell id="CavwSXmpKCnvgIxQiqFj-389" style="edgeStyle=orthogonalEdgeStyle;rounded=0;orthogonalLoop=1;jettySize=auto;html=1;exitX=1;exitY=0.5;exitDx=0;exitDy=0;" parent="1" source="CavwSXmpKCnvgIxQiqFj-393" target="CavwSXmpKCnvgIxQiqFj-266" edge="1">
          <mxGeometry relative="1" as="geometry">
            <Array as="points">
              <mxPoint x="-730" y="-174" />
              <mxPoint x="-730" y="-640" />
              <mxPoint x="-90" y="-640" />
            </Array>
          </mxGeometry>
        </mxCell>
        <mxCell id="CavwSXmpKCnvgIxQiqFj-390" value="/motovis_perception/debug/freespace_polygon" style="edgeLabel;html=1;align=center;verticalAlign=middle;resizable=0;points=[];rotation=90;" parent="CavwSXmpKCnvgIxQiqFj-389" vertex="1" connectable="0">
          <mxGeometry x="0.4486" y="3" relative="1" as="geometry">
            <mxPoint x="-576" y="153" as="offset" />
          </mxGeometry>
        </mxCell>
        <mxCell id="CavwSXmpKCnvgIxQiqFj-391" style="edgeStyle=orthogonalEdgeStyle;rounded=0;orthogonalLoop=1;jettySize=auto;html=1;exitX=0.75;exitY=1;exitDx=0;exitDy=0;entryX=0;entryY=0.75;entryDx=0;entryDy=0;" parent="1" source="CavwSXmpKCnvgIxQiqFj-393" target="CavwSXmpKCnvgIxQiqFj-480" edge="1">
          <mxGeometry relative="1" as="geometry" />
        </mxCell>
        <mxCell id="CavwSXmpKCnvgIxQiqFj-392" value="/planning/amd_parking_planner/parking_lots" style="edgeLabel;html=1;align=center;verticalAlign=middle;resizable=0;points=[];rotation=89;" parent="CavwSXmpKCnvgIxQiqFj-391" vertex="1" connectable="0">
          <mxGeometry x="-0.2368" y="3" relative="1" as="geometry">
            <mxPoint as="offset" />
          </mxGeometry>
        </mxCell>
        <object label="&lt;b&gt;amd_parking_space_perception&lt;/b&gt;" desc="MGRS座標系への変換" tooltip="gnssのdriverです" id="CavwSXmpKCnvgIxQiqFj-393">
          <mxCell style="rounded=1;whiteSpace=wrap;html=1;comic=0;strokeColor=#BD7000;fillColor=#f0a30a;sketch=0;fontColor=#000000;" parent="1" vertex="1">
            <mxGeometry x="-1050" y="-233.12" width="240" height="117.5" as="geometry" />
          </mxCell>
        </object>
        <mxCell id="CavwSXmpKCnvgIxQiqFj-394" style="edgeStyle=orthogonalEdgeStyle;rounded=0;orthogonalLoop=1;jettySize=auto;html=1;" parent="1" edge="1">
          <mxGeometry relative="1" as="geometry">
            <mxPoint x="-1018" y="-690" as="sourcePoint" />
            <mxPoint x="-1018" y="-233" as="targetPoint" />
            <Array as="points">
              <mxPoint x="-1017" y="-350" />
              <mxPoint x="-1018" y="-350" />
            </Array>
          </mxGeometry>
        </mxCell>
        <mxCell id="CavwSXmpKCnvgIxQiqFj-395" value="/planning/scenario_planning&lt;br&gt;/scenario" style="edgeLabel;html=1;align=center;verticalAlign=middle;resizable=0;points=[];rotation=90;" parent="CavwSXmpKCnvgIxQiqFj-394" vertex="1" connectable="0">
          <mxGeometry x="-0.4324" y="-2" relative="1" as="geometry">
            <mxPoint x="-1" y="-14" as="offset" />
          </mxGeometry>
        </mxCell>
        <mxCell id="CavwSXmpKCnvgIxQiqFj-396" style="edgeStyle=orthogonalEdgeStyle;rounded=0;orthogonalLoop=1;jettySize=auto;html=1;entryX=0.703;entryY=-0.027;entryDx=0;entryDy=0;entryPerimeter=0;exitX=0.477;exitY=1;exitDx=0;exitDy=0;exitPerimeter=0;" parent="1" source="CavwSXmpKCnvgIxQiqFj-379" edge="1">
          <mxGeometry relative="1" as="geometry">
            <mxPoint x="-935" y="-680" as="sourcePoint" />
            <mxPoint x="-939.9900000000002" y="-233.12250000000003" as="targetPoint" />
            <Array as="points" />
          </mxGeometry>
        </mxCell>
        <mxCell id="CavwSXmpKCnvgIxQiqFj-397" value="/planning/scenario_planning/parking_mode" style="edgeLabel;html=1;align=center;verticalAlign=middle;resizable=0;points=[];rotation=90;" parent="CavwSXmpKCnvgIxQiqFj-396" vertex="1" connectable="0">
          <mxGeometry x="-0.0391" y="3" relative="1" as="geometry">
            <mxPoint as="offset" />
          </mxGeometry>
        </mxCell>
        <mxCell id="CavwSXmpKCnvgIxQiqFj-398" style="edgeStyle=orthogonalEdgeStyle;rounded=0;orthogonalLoop=1;jettySize=auto;html=1;entryX=0.203;entryY=0.985;entryDx=0;entryDy=0;entryPerimeter=0;" parent="1" target="CavwSXmpKCnvgIxQiqFj-393" edge="1">
          <mxGeometry relative="1" as="geometry">
            <mxPoint x="-1001" y="110" as="sourcePoint" />
            <mxPoint x="-1010" y="-10" as="targetPoint" />
          </mxGeometry>
        </mxCell>
        <mxCell id="CavwSXmpKCnvgIxQiqFj-399" style="edgeStyle=orthogonalEdgeStyle;rounded=0;orthogonalLoop=1;jettySize=auto;html=1;" parent="1" edge="1">
          <mxGeometry relative="1" as="geometry">
            <mxPoint x="-940" y="111.38" as="sourcePoint" />
            <mxPoint x="-940" y="-120" as="targetPoint" />
          </mxGeometry>
        </mxCell>
        <mxCell id="CavwSXmpKCnvgIxQiqFj-400" value="/localization/kinematic_state" style="edgeLabel;html=1;align=center;verticalAlign=middle;resizable=0;points=[];rotation=0;" parent="CavwSXmpKCnvgIxQiqFj-399" vertex="1" connectable="0">
          <mxGeometry x="-0.4324" y="-2" relative="1" as="geometry">
            <mxPoint x="-91" y="-56" as="offset" />
          </mxGeometry>
        </mxCell>
        <mxCell id="CavwSXmpKCnvgIxQiqFj-401" value="/pacmod/steering_rpt&amp;nbsp;&lt;br&gt;wheel_spped_rpt&lt;br&gt;wheel_ticks_rpt&lt;br&gt;accel_rpt&lt;br&gt;brake_rpt&lt;br&gt;shift_rpt&lt;br&gt;global_rpt&lt;br&gt;" style="edgeLabel;html=1;align=center;verticalAlign=middle;resizable=0;points=[];" parent="CavwSXmpKCnvgIxQiqFj-399" vertex="1" connectable="0">
          <mxGeometry x="-0.2935" y="4" relative="1" as="geometry">
            <mxPoint x="14" y="20" as="offset" />
          </mxGeometry>
        </mxCell>
        <mxCell id="CavwSXmpKCnvgIxQiqFj-402" style="edgeStyle=orthogonalEdgeStyle;rounded=0;orthogonalLoop=1;jettySize=auto;html=1;entryX=0.5;entryY=1;entryDx=0;entryDy=0;" parent="1" target="CavwSXmpKCnvgIxQiqFj-266" edge="1">
          <mxGeometry relative="1" as="geometry">
            <mxPoint x="-100" y="-30" as="sourcePoint" />
            <mxPoint x="-441.41117647058786" y="-106.25000000000045" as="targetPoint" />
            <Array as="points">
              <mxPoint x="-90" y="-30" />
            </Array>
          </mxGeometry>
        </mxCell>
        <mxCell id="CavwSXmpKCnvgIxQiqFj-403" value="/sensing/ultasonic/valeo/freespace" style="edgeLabel;html=1;align=center;verticalAlign=middle;resizable=0;points=[];" parent="CavwSXmpKCnvgIxQiqFj-402" vertex="1" connectable="0">
          <mxGeometry x="-0.2685" y="1" relative="1" as="geometry">
            <mxPoint as="offset" />
          </mxGeometry>
        </mxCell>
        <mxCell id="CavwSXmpKCnvgIxQiqFj-404" style="edgeStyle=orthogonalEdgeStyle;rounded=0;orthogonalLoop=1;jettySize=auto;html=1;exitX=0.5;exitY=1;exitDx=0;exitDy=0;entryX=0;entryY=0.5;entryDx=0;entryDy=0;" parent="1" source="CavwSXmpKCnvgIxQiqFj-406" target="CavwSXmpKCnvgIxQiqFj-393" edge="1">
          <mxGeometry relative="1" as="geometry" />
        </mxCell>
        <mxCell id="CavwSXmpKCnvgIxQiqFj-405" value="camera_feed to motovis CNN IP" style="edgeLabel;html=1;align=center;verticalAlign=middle;resizable=0;points=[];" parent="CavwSXmpKCnvgIxQiqFj-404" vertex="1" connectable="0">
          <mxGeometry x="-0.313" y="-1" relative="1" as="geometry">
            <mxPoint as="offset" />
          </mxGeometry>
        </mxCell>
        <object label="&lt;b&gt;4 * Fisheye cameras&lt;/b&gt;" desc="MGRS座標系への変換" tooltip="gnssのdriverです" id="CavwSXmpKCnvgIxQiqFj-406">
          <mxCell style="rounded=1;whiteSpace=wrap;html=1;comic=0;strokeColor=#9673a6;fillColor=#e1d5e7;sketch=0;" parent="1" vertex="1">
            <mxGeometry x="-1390" y="-494.25" width="160" height="40" as="geometry" />
          </mxCell>
        </object>
        <mxCell id="CavwSXmpKCnvgIxQiqFj-407" style="edgeStyle=orthogonalEdgeStyle;rounded=0;orthogonalLoop=1;jettySize=auto;html=1;exitX=0.5;exitY=0;exitDx=0;exitDy=0;entryX=0.5;entryY=1;entryDx=0;entryDy=0;" parent="1" source="CavwSXmpKCnvgIxQiqFj-409" target="CavwSXmpKCnvgIxQiqFj-419" edge="1">
          <mxGeometry relative="1" as="geometry" />
        </mxCell>
        <mxCell id="CavwSXmpKCnvgIxQiqFj-408" value="pcd map generation" style="edgeLabel;html=1;align=center;verticalAlign=middle;resizable=0;points=[];" parent="CavwSXmpKCnvgIxQiqFj-407" vertex="1" connectable="0">
          <mxGeometry x="0.1441" y="1" relative="1" as="geometry">
            <mxPoint as="offset" />
          </mxGeometry>
        </mxCell>
        <object label="&lt;b&gt;Lidar VLP32&lt;/b&gt;" desc="MGRS座標系への変換" tooltip="gnssのdriverです" id="CavwSXmpKCnvgIxQiqFj-409">
          <mxCell style="rounded=1;whiteSpace=wrap;html=1;comic=0;strokeColor=#9673a6;fillColor=#e1d5e7;sketch=0;" parent="1" vertex="1">
            <mxGeometry x="-1570" y="-494.25" width="160" height="40" as="geometry" />
          </mxCell>
        </object>
        <mxCell id="CavwSXmpKCnvgIxQiqFj-410" value="" style="rounded=1;whiteSpace=wrap;html=1;dashed=1;fillColor=none;strokeWidth=3;comic=0;" parent="1" vertex="1">
          <mxGeometry x="-1832" y="-1050" width="270" height="310" as="geometry" />
        </mxCell>
        <mxCell id="CavwSXmpKCnvgIxQiqFj-411" value="&lt;font style=&quot;font-size: 14px;&quot;&gt;&lt;b style=&quot;&quot;&gt;&amp;lt;MAP&amp;gt;&lt;/b&gt;&lt;/font&gt;" style="text;html=1;strokeColor=none;fillColor=none;align=center;verticalAlign=middle;whiteSpace=wrap;rounded=0;dashed=1;comic=0;" parent="1" vertex="1">
          <mxGeometry x="-1647" y="-1040" width="80" height="30" as="geometry" />
        </mxCell>
        <mxCell id="CavwSXmpKCnvgIxQiqFj-412" style="edgeStyle=orthogonalEdgeStyle;rounded=0;orthogonalLoop=1;jettySize=auto;html=1;exitX=0;exitY=0.25;exitDx=0;exitDy=0;entryX=0;entryY=0.75;entryDx=0;entryDy=0;" parent="1" source="CavwSXmpKCnvgIxQiqFj-415" target="CavwSXmpKCnvgIxQiqFj-342" edge="1">
          <mxGeometry relative="1" as="geometry">
            <Array as="points">
              <mxPoint x="-2120" y="-990" />
              <mxPoint x="-2120" y="-321" />
            </Array>
          </mxGeometry>
        </mxCell>
        <mxCell id="CavwSXmpKCnvgIxQiqFj-413" value="/map/map_projector_info" style="edgeLabel;html=1;align=center;verticalAlign=middle;resizable=0;points=[];" parent="CavwSXmpKCnvgIxQiqFj-412" vertex="1" connectable="0">
          <mxGeometry x="-0.5764" y="-2" relative="1" as="geometry">
            <mxPoint as="offset" />
          </mxGeometry>
        </mxCell>
        <mxCell id="CavwSXmpKCnvgIxQiqFj-414" style="edgeStyle=orthogonalEdgeStyle;rounded=0;orthogonalLoop=1;jettySize=auto;html=1;exitX=0.5;exitY=1;exitDx=0;exitDy=0;" parent="1" source="CavwSXmpKCnvgIxQiqFj-415" target="CavwSXmpKCnvgIxQiqFj-418" edge="1">
          <mxGeometry relative="1" as="geometry" />
        </mxCell>
        <object label="&lt;b&gt;Map projection Loader&lt;/b&gt;" desc="MGRS座標系への変換" tooltip="gnssのdriverです" link="https://github.com/autowarefoundation/autoware.universe/tree/main/map/map_projection_loader" linkTarget="_blank" id="CavwSXmpKCnvgIxQiqFj-415">
          <mxCell style="rounded=1;whiteSpace=wrap;html=1;comic=0;strokeColor=#82b366;fillColor=#d5e8d4;sketch=0;" parent="1" vertex="1">
            <mxGeometry x="-1782" y="-1000" width="120" height="40" as="geometry" />
          </mxCell>
        </object>
        <mxCell id="CavwSXmpKCnvgIxQiqFj-416" style="edgeStyle=orthogonalEdgeStyle;rounded=0;orthogonalLoop=1;jettySize=auto;html=1;exitX=1;exitY=0.5;exitDx=0;exitDy=0;" parent="1" source="CavwSXmpKCnvgIxQiqFj-418" edge="1">
          <mxGeometry relative="1" as="geometry">
            <mxPoint x="-1390" y="-890" as="targetPoint" />
          </mxGeometry>
        </mxCell>
        <mxCell id="CavwSXmpKCnvgIxQiqFj-417" value="/map/vector_map" style="edgeLabel;html=1;align=center;verticalAlign=middle;resizable=0;points=[];" parent="CavwSXmpKCnvgIxQiqFj-416" vertex="1" connectable="0">
          <mxGeometry x="0.1516" y="-5" relative="1" as="geometry">
            <mxPoint x="1" as="offset" />
          </mxGeometry>
        </mxCell>
        <object label="&lt;b&gt;Lanelet Map Loader&lt;/b&gt;" desc="MGRS座標系への変換" tooltip="gnssのdriverです" link="https://github.com/autowarefoundation/autoware.universe/tree/main/map/map_loader" linkTarget="_blank" id="CavwSXmpKCnvgIxQiqFj-418">
          <mxCell style="rounded=1;whiteSpace=wrap;html=1;comic=0;strokeColor=#82b366;fillColor=#d5e8d4;sketch=0;" parent="1" vertex="1">
            <mxGeometry x="-1782" y="-910" width="120" height="40" as="geometry" />
          </mxCell>
        </object>
        <object label="&lt;b&gt;Pointcloud Map Loader&lt;/b&gt;" desc="MGRS座標系への変換" tooltip="gnssのdriverです" link="https://github.com/autowarefoundation/autoware.universe/tree/main/map/map_loader" linkTarget="_blank" id="CavwSXmpKCnvgIxQiqFj-419">
          <mxCell style="rounded=1;whiteSpace=wrap;html=1;comic=0;strokeColor=#82b366;fillColor=#d5e8d4;sketch=0;" parent="1" vertex="1">
            <mxGeometry x="-1782" y="-820" width="120" height="40" as="geometry" />
          </mxCell>
        </object>
        <mxCell id="CavwSXmpKCnvgIxQiqFj-420" value="" style="rounded=1;whiteSpace=wrap;html=1;dashed=1;fillColor=none;strokeWidth=1;comic=0;" parent="1" vertex="1">
          <mxGeometry x="-560" y="-580" width="275" height="686" as="geometry" />
        </mxCell>
        <UserObject label="&lt;b&gt;behavior_velocity_planner&lt;/b&gt;" tooltip="交通ルールをもとに、経路上の最大速度を決定します。各モジュールは、自身の計算した最大速度と上段の結果を比較し、小さい速度を経路上に書き込みます。" link="https://github.com/autowarefoundation/autoware.universe/tree/main/planning/behavior_velocity_planner" id="CavwSXmpKCnvgIxQiqFj-421">
          <mxCell style="rounded=1;whiteSpace=wrap;html=1;comic=0;fillColor=#fff2cc;strokeColor=#d6b656;verticalAlign=top;sketch=0;shadow=0;arcSize=9;" parent="1" vertex="1">
            <mxGeometry x="-545" y="-229" width="250" height="300" as="geometry" />
          </mxCell>
        </UserObject>
        <mxCell id="CavwSXmpKCnvgIxQiqFj-422" value="&lt;span style=&quot;color: rgb(0, 0, 0); font-family: Helvetica; font-size: 11px; font-style: normal; font-variant-ligatures: normal; font-variant-caps: normal; font-weight: 400; letter-spacing: normal; orphans: 2; text-align: center; text-indent: 0px; text-transform: none; widows: 2; word-spacing: 0px; -webkit-text-stroke-width: 0px; background-color: rgb(255, 255, 255); text-decoration-thickness: initial; text-decoration-style: initial; text-decoration-color: initial; float: none; display: inline !important;&quot;&gt;/planning/scenario_planning/trajectory [Trajectory]&lt;/span&gt;" style="edgeLabel;html=1;align=center;verticalAlign=middle;resizable=0;points=[];" parent="1" vertex="1" connectable="0">
          <mxGeometry x="-375.50142857142845" y="926.0028571428574" as="geometry">
            <mxPoint x="80" y="2" as="offset" />
          </mxGeometry>
        </mxCell>
        <mxCell id="CavwSXmpKCnvgIxQiqFj-423" value="motion_planning/obstacle_avoidance_planner/trajectory [Trajectory]" style="edgeStyle=orthogonalEdgeStyle;rounded=0;comic=0;orthogonalLoop=1;jettySize=auto;html=1;entryX=0.5;entryY=0;entryDx=0;entryDy=0;startArrow=none;startFill=0;" parent="1" source="CavwSXmpKCnvgIxQiqFj-424" target="CavwSXmpKCnvgIxQiqFj-426" edge="1">
          <mxGeometry x="-0.4" y="1" relative="1" as="geometry">
            <mxPoint as="offset" />
          </mxGeometry>
        </mxCell>
        <UserObject label="&lt;b&gt;obstacle_&lt;br&gt;avoidance_planner&lt;/b&gt;" tooltip="車両形状や走行可能領域を考慮して、経路の平滑化を行う。障害物も避けるが、long historyで最近は回避機能はoffになっています。" link="https://github.com/autowarefoundation/autoware.universe/tree/main/planning/obstacle_avoidance_planner" id="CavwSXmpKCnvgIxQiqFj-424">
          <mxCell style="rounded=1;whiteSpace=wrap;html=1;comic=0;fillColor=#fff2cc;strokeColor=#d6b656;sketch=0;shadow=0;" parent="1" vertex="1">
            <mxGeometry x="-480" y="261" width="120" height="40" as="geometry" />
          </mxCell>
        </UserObject>
        <mxCell id="CavwSXmpKCnvgIxQiqFj-425" value="motion_planning/obstacle_velocity_limiter/trajectory [Trajectory]" style="edgeStyle=none;rounded=0;comic=0;orthogonalLoop=1;jettySize=auto;html=1;exitX=0.5;exitY=1;exitDx=0;exitDy=0;entryX=0.5;entryY=0;entryDx=0;entryDy=0;startArrow=none;startFill=0;" parent="1" source="CavwSXmpKCnvgIxQiqFj-426" target="CavwSXmpKCnvgIxQiqFj-430" edge="1">
          <mxGeometry relative="1" as="geometry">
            <mxPoint as="offset" />
          </mxGeometry>
        </mxCell>
        <UserObject label="&lt;b&gt;obstacle_velocity_limiter&lt;/b&gt;" tooltip="自車が停止しているときに、周囲の障害物を確認し、近くに障害物がいる場合は車両を発進させない。" link="https://github.com/autowarefoundation/autoware.universe/tree/main/planning/obstacle_velocity_limiter" id="CavwSXmpKCnvgIxQiqFj-426">
          <mxCell style="rounded=1;whiteSpace=wrap;html=1;comic=0;fillColor=#fff2cc;strokeColor=#d6b656;sketch=0;shadow=0;" parent="1" vertex="1">
            <mxGeometry x="-490" y="351" width="140" height="40" as="geometry" />
          </mxCell>
        </UserObject>
        <mxCell id="CavwSXmpKCnvgIxQiqFj-427" style="edgeStyle=orthogonalEdgeStyle;rounded=0;orthogonalLoop=1;jettySize=auto;html=1;exitX=1;exitY=0.5;exitDx=0;exitDy=0;entryX=0.5;entryY=0;entryDx=0;entryDy=0;" parent="1" source="CavwSXmpKCnvgIxQiqFj-430" target="CavwSXmpKCnvgIxQiqFj-467" edge="1">
          <mxGeometry relative="1" as="geometry" />
        </mxCell>
        <mxCell id="CavwSXmpKCnvgIxQiqFj-428" style="edgeStyle=orthogonalEdgeStyle;rounded=0;orthogonalLoop=1;jettySize=auto;html=1;exitX=0.5;exitY=1;exitDx=0;exitDy=0;entryX=0.5;entryY=0;entryDx=0;entryDy=0;" parent="1" source="CavwSXmpKCnvgIxQiqFj-430" target="CavwSXmpKCnvgIxQiqFj-480" edge="1">
          <mxGeometry relative="1" as="geometry">
            <Array as="points">
              <mxPoint x="-420" y="500" />
              <mxPoint x="-270" y="500" />
            </Array>
          </mxGeometry>
        </mxCell>
        <mxCell id="CavwSXmpKCnvgIxQiqFj-429" value="lane_driving/trajectory [Trajectory]" style="edgeLabel;html=1;align=center;verticalAlign=middle;resizable=0;points=[];" parent="CavwSXmpKCnvgIxQiqFj-428" vertex="1" connectable="0">
          <mxGeometry x="-0.1373" y="-1" relative="1" as="geometry">
            <mxPoint as="offset" />
          </mxGeometry>
        </mxCell>
        <UserObject label="&lt;b&gt;obstacle_stop_&lt;br&gt;planner&lt;/b&gt;" tooltip="障害物停止・前車追従・近傍障害物減速の複数の機能を持ち、機能に応じて経路上に速度を埋め込む。&#xa;目標経路上に障害物点がある場合は停止、経路近くに障害物点群がある場合は減速、前方に車両が居る場合は前車追従。" link="https://github.com/autowarefoundation/autoware.universe/tree/main/planning/obstacle_stop_planner" id="CavwSXmpKCnvgIxQiqFj-430">
          <mxCell style="rounded=1;whiteSpace=wrap;html=1;comic=0;fillColor=#fff2cc;strokeColor=#d6b656;sketch=0;shadow=0;" parent="1" vertex="1">
            <mxGeometry x="-480" y="446" width="120" height="40" as="geometry" />
          </mxCell>
        </UserObject>
        <mxCell id="CavwSXmpKCnvgIxQiqFj-431" value="trajectory [Trajectory]" style="edgeStyle=orthogonalEdgeStyle;rounded=0;comic=0;orthogonalLoop=1;jettySize=auto;html=1;startArrow=none;startFill=0;" parent="1" source="CavwSXmpKCnvgIxQiqFj-432" target="CavwSXmpKCnvgIxQiqFj-434" edge="1">
          <mxGeometry relative="1" as="geometry" />
        </mxCell>
        <UserObject label="&lt;b&gt;scenario_selector&lt;/b&gt;" tooltip="いまのrouteおよび地図情報から、LaneDriving / Parkingのシナリオを判断し、どちらの経路を使うかを切り替える。" link="https://github.com/autowarefoundation/autoware.universe/tree/main/planning/scenario_selector" id="CavwSXmpKCnvgIxQiqFj-432">
          <mxCell style="rounded=1;whiteSpace=wrap;html=1;comic=0;fillColor=#fff2cc;strokeColor=#d6b656;sketch=0;shadow=0;" parent="1" vertex="1">
            <mxGeometry x="-330" y="620" width="120" height="40" as="geometry" />
          </mxCell>
        </UserObject>
        <mxCell id="CavwSXmpKCnvgIxQiqFj-433" value="&lt;span style=&quot;color: rgb(0, 0, 0); font-family: Helvetica; font-size: 11px; font-style: normal; font-variant-ligatures: normal; font-variant-caps: normal; font-weight: 400; letter-spacing: normal; orphans: 2; text-align: center; text-indent: 0px; text-transform: none; widows: 2; word-spacing: 0px; -webkit-text-stroke-width: 0px; background-color: rgb(255, 255, 255); text-decoration-thickness: initial; text-decoration-style: initial; text-decoration-color: initial; float: none; display: inline !important;&quot;&gt;/planning/scenario_planning/motion_velocity_smoother/trajectory [Trajectory]&lt;/span&gt;" style="edgeStyle=none;html=1;" parent="1" source="CavwSXmpKCnvgIxQiqFj-434" target="CavwSXmpKCnvgIxQiqFj-446" edge="1">
          <mxGeometry x="0.15" relative="1" as="geometry">
            <mxPoint as="offset" />
          </mxGeometry>
        </mxCell>
        <UserObject label="&lt;b&gt;motion_velocity_&lt;br&gt;smoother&lt;/b&gt;" tooltip="経路に埋め込まれた最大速度を超過しないように、うまい具合で速度を平滑化する。カーブでの減速もここで行う。" link="https://github.com/autowarefoundation/autoware.universe/tree/main/planning/motion_velocity_smoother" id="CavwSXmpKCnvgIxQiqFj-434">
          <mxCell style="rounded=1;whiteSpace=wrap;html=1;comic=0;fillColor=#fff2cc;strokeColor=#d6b656;sketch=0;shadow=0;" parent="1" vertex="1">
            <mxGeometry x="-330" y="711" width="120" height="40" as="geometry" />
          </mxCell>
        </UserObject>
        <mxCell id="CavwSXmpKCnvgIxQiqFj-435" value="&lt;b&gt;&amp;lt;Lane Driving&amp;gt;&lt;/b&gt;" style="text;html=1;strokeColor=none;fillColor=none;align=center;verticalAlign=middle;whiteSpace=wrap;rounded=0;dashed=1;comic=0;" parent="1" vertex="1">
          <mxGeometry x="-450" y="-580.0030303030303" width="90" height="20.303030303030305" as="geometry" />
        </mxCell>
        <mxCell id="CavwSXmpKCnvgIxQiqFj-436" value="behavior_planning/path_with_lane_id" style="edgeStyle=none;rounded=0;comic=0;orthogonalLoop=1;jettySize=auto;html=1;exitX=0.5;exitY=1;exitDx=0;exitDy=0;entryX=0.5;entryY=0;entryDx=0;entryDy=0;startArrow=none;startFill=0;" parent="1" source="CavwSXmpKCnvgIxQiqFj-439" target="CavwSXmpKCnvgIxQiqFj-421" edge="1">
          <mxGeometry relative="1" as="geometry">
            <mxPoint x="-436.5" y="-266" as="sourcePoint" />
            <mxPoint x="-436.5" y="-216" as="targetPoint" />
          </mxGeometry>
        </mxCell>
        <mxCell id="CavwSXmpKCnvgIxQiqFj-437" value="" style="edgeStyle=orthogonalEdgeStyle;rounded=0;orthogonalLoop=1;jettySize=auto;html=1;exitX=0.5;exitY=1;exitDx=0;exitDy=0;" parent="1" source="CavwSXmpKCnvgIxQiqFj-421" target="CavwSXmpKCnvgIxQiqFj-449" edge="1">
          <mxGeometry relative="1" as="geometry">
            <mxPoint x="-420" y="171" as="targetPoint" />
          </mxGeometry>
        </mxCell>
        <mxCell id="CavwSXmpKCnvgIxQiqFj-438" value="behavior_planning/path" style="edgeLabel;html=1;align=center;verticalAlign=middle;resizable=0;points=[];" parent="CavwSXmpKCnvgIxQiqFj-437" vertex="1" connectable="0">
          <mxGeometry x="0.206" y="-1" relative="1" as="geometry">
            <mxPoint as="offset" />
          </mxGeometry>
        </mxCell>
        <UserObject label="&lt;b&gt;behavior_path_planner&lt;/b&gt;" tooltip="交通ルールをもとに、経路上の最大速度を決定します。各モジュールは、自身の計算した最大速度と上段の結果を比較し、小さい速度を経路上に書き込みます。" link="https://github.com/autowarefoundation/autoware.universe/tree/main/planning/behavior_path_planner" id="CavwSXmpKCnvgIxQiqFj-439">
          <mxCell style="rounded=1;whiteSpace=wrap;html=1;comic=0;fillColor=#fff2cc;strokeColor=#d6b656;verticalAlign=top;sketch=0;shadow=0;" parent="1" vertex="1">
            <mxGeometry x="-520" y="-549" width="200" height="241" as="geometry" />
          </mxCell>
        </UserObject>
        <UserObject label="&lt;b&gt;side_shift&lt;/b&gt;" tooltip="遠隔からの司令をもとに幅寄せを行います。" id="CavwSXmpKCnvgIxQiqFj-440">
          <mxCell style="rounded=1;whiteSpace=wrap;html=1;comic=0;fillColor=#fff2cc;strokeColor=#d6b656;sketch=0;shadow=0;" parent="1" vertex="1">
            <mxGeometry x="-480" y="-351" width="120" height="30" as="geometry" />
          </mxCell>
        </UserObject>
        <UserObject label="&lt;b&gt;pull_over/out&lt;/b&gt;" tooltip="ルート情報をもとに路肩への幅寄せ、路肩からの発進を行います。" id="CavwSXmpKCnvgIxQiqFj-441">
          <mxCell style="rounded=1;whiteSpace=wrap;html=1;comic=0;fillColor=#fff2cc;strokeColor=#d6b656;sketch=0;shadow=0;" parent="1" vertex="1">
            <mxGeometry x="-480" y="-391" width="120" height="30" as="geometry" />
          </mxCell>
        </UserObject>
        <UserObject label="&lt;b&gt;obstacle_avoidance&lt;/b&gt;" tooltip="ルート情報や障害物情報をもとに、障害物回避を実行します。" id="CavwSXmpKCnvgIxQiqFj-442">
          <mxCell style="rounded=1;whiteSpace=wrap;html=1;comic=0;fillColor=#fff2cc;strokeColor=#d6b656;sketch=0;shadow=0;" parent="1" vertex="1">
            <mxGeometry x="-480" y="-431" width="120" height="30" as="geometry" />
          </mxCell>
        </UserObject>
        <UserObject label="&lt;b&gt;lane_change&lt;/b&gt;" tooltip="ルート情報や障害物情報をもとに、レーンチェンジを実行します。" id="CavwSXmpKCnvgIxQiqFj-443">
          <mxCell style="rounded=1;whiteSpace=wrap;html=1;comic=0;fillColor=#fff2cc;strokeColor=#d6b656;sketch=0;shadow=0;" parent="1" vertex="1">
            <mxGeometry x="-480" y="-473" width="120" height="30" as="geometry" />
          </mxCell>
        </UserObject>
        <UserObject label="&lt;b&gt;lane_following&lt;/b&gt;" tooltip="ルート情報をもとに走行経路を作成します。" id="CavwSXmpKCnvgIxQiqFj-444">
          <mxCell style="rounded=1;whiteSpace=wrap;html=1;comic=0;fillColor=#fff2cc;strokeColor=#d6b656;sketch=0;shadow=0;" parent="1" vertex="1">
            <mxGeometry x="-480" y="-511" width="120" height="30" as="geometry" />
          </mxCell>
        </UserObject>
        <mxCell id="CavwSXmpKCnvgIxQiqFj-445" style="edgeStyle=orthogonalEdgeStyle;rounded=0;orthogonalLoop=1;jettySize=auto;html=1;exitX=0.5;exitY=1;exitDx=0;exitDy=0;entryX=0.5;entryY=0;entryDx=0;entryDy=0;" parent="1" source="CavwSXmpKCnvgIxQiqFj-446" target="CavwSXmpKCnvgIxQiqFj-291" edge="1">
          <mxGeometry relative="1" as="geometry">
            <Array as="points">
              <mxPoint x="-270" y="940" />
              <mxPoint x="150" y="940" />
              <mxPoint x="150" y="-610" />
              <mxPoint x="590" y="-610" />
              <mxPoint x="590" y="-440" />
              <mxPoint x="730" y="-440" />
            </Array>
          </mxGeometry>
        </mxCell>
        <UserObject label="&lt;b&gt;planning_validator&lt;/b&gt;" tooltip="Check the trajectory and stop publishing it if it is unsafe." link="https://github.com/autowarefoundation/autoware.universe/tree/main/planning/planning_validator" id="CavwSXmpKCnvgIxQiqFj-446">
          <mxCell style="rounded=1;whiteSpace=wrap;html=1;comic=0;fillColor=#fff2cc;strokeColor=#d6b656;sketch=0;shadow=0;" parent="1" vertex="1">
            <mxGeometry x="-330" y="791" width="120" height="40" as="geometry" />
          </mxCell>
        </UserObject>
        <mxCell id="CavwSXmpKCnvgIxQiqFj-447" style="edgeStyle=orthogonalEdgeStyle;rounded=0;orthogonalLoop=1;jettySize=auto;html=1;entryX=0.5;entryY=0;entryDx=0;entryDy=0;" parent="1" source="CavwSXmpKCnvgIxQiqFj-449" target="CavwSXmpKCnvgIxQiqFj-424" edge="1">
          <mxGeometry relative="1" as="geometry" />
        </mxCell>
        <mxCell id="CavwSXmpKCnvgIxQiqFj-448" value="path_smoother/path" style="edgeLabel;html=1;align=center;verticalAlign=middle;resizable=0;points=[];" parent="CavwSXmpKCnvgIxQiqFj-447" vertex="1" connectable="0">
          <mxGeometry x="-0.3175" y="2" relative="1" as="geometry">
            <mxPoint as="offset" />
          </mxGeometry>
        </mxCell>
        <UserObject label="&lt;b&gt;path_smoother&lt;/b&gt;" tooltip="車両形状や走行可能領域を考慮して、経路の平滑化を行う。障害物も避けるが、long historyで最近は回避機能はoffになっています。" link="https://autowarefoundation.github.io/autoware.universe/main/planning/path_smoother/" id="CavwSXmpKCnvgIxQiqFj-449">
          <mxCell style="rounded=1;whiteSpace=wrap;html=1;comic=0;fillColor=#fff2cc;strokeColor=#d6b656;sketch=0;shadow=0;" parent="1" vertex="1">
            <mxGeometry x="-480" y="171" width="120" height="40" as="geometry" />
          </mxCell>
        </UserObject>
        <mxCell id="CavwSXmpKCnvgIxQiqFj-450" value="" style="group" parent="1" vertex="1" connectable="0">
          <mxGeometry x="-414" y="-194" width="110" height="25" as="geometry" />
        </mxCell>
        <UserObject label="&lt;b&gt;no_stopping_area&lt;/b&gt;" tooltip="停止禁止区域内で停止しないように、区域手前での進行・停止判断を行います。" id="CavwSXmpKCnvgIxQiqFj-451">
          <mxCell style="rounded=1;whiteSpace=wrap;html=1;comic=0;fillColor=#fff2cc;strokeColor=#d6b656;sketch=0;shadow=0;" parent="CavwSXmpKCnvgIxQiqFj-450" vertex="1">
            <mxGeometry y="93" width="110" height="25" as="geometry" />
          </mxCell>
        </UserObject>
        <UserObject label="&lt;b&gt;intersection&lt;/b&gt;" tooltip="地図情報および動物体情報から、交差点での停止/発進の判定を行います。" id="CavwSXmpKCnvgIxQiqFj-452">
          <mxCell style="rounded=1;whiteSpace=wrap;html=1;comic=0;fillColor=#fff2cc;strokeColor=#d6b656;sketch=0;shadow=0;" parent="CavwSXmpKCnvgIxQiqFj-450" vertex="1">
            <mxGeometry y="62" width="110" height="25" as="geometry" />
          </mxCell>
        </UserObject>
        <UserObject label="&lt;b&gt;traffic_light&lt;/b&gt;" tooltip="信号の色に応じて停止/発進の指示をします" id="CavwSXmpKCnvgIxQiqFj-453">
          <mxCell style="rounded=1;whiteSpace=wrap;html=1;comic=0;fillColor=#fff2cc;strokeColor=#d6b656;sketch=0;shadow=0;" parent="CavwSXmpKCnvgIxQiqFj-450" vertex="1">
            <mxGeometry y="31" width="110" height="25" as="geometry" />
          </mxCell>
        </UserObject>
        <UserObject label="&lt;b&gt;blind_spot&lt;/b&gt;" tooltip="右左折時に車両後方の巻き込み確認を行い、衝突の危険がある場合は停止します。" id="CavwSXmpKCnvgIxQiqFj-454">
          <mxCell style="rounded=1;whiteSpace=wrap;html=1;comic=0;fillColor=#fff2cc;strokeColor=#d6b656;sketch=0;shadow=0;" parent="CavwSXmpKCnvgIxQiqFj-450" vertex="1">
            <mxGeometry width="110" height="25" as="geometry" />
          </mxCell>
        </UserObject>
        <UserObject label="&lt;b&gt;no_drivable_lane&lt;/b&gt;" tooltip="規定された停止線で一時停止を行います" id="CavwSXmpKCnvgIxQiqFj-455">
          <mxCell style="rounded=1;whiteSpace=wrap;html=1;comic=0;fillColor=#fff2cc;strokeColor=#d6b656;sketch=0;shadow=0;" parent="CavwSXmpKCnvgIxQiqFj-450" vertex="1">
            <mxGeometry y="155" width="110" height="25" as="geometry" />
          </mxCell>
        </UserObject>
        <UserObject label="&lt;b&gt;run_out&lt;/b&gt;" tooltip="規定された停止線で一時停止を行います" id="CavwSXmpKCnvgIxQiqFj-456">
          <mxCell style="rounded=1;whiteSpace=wrap;html=1;comic=0;fillColor=#fff2cc;strokeColor=#d6b656;sketch=0;shadow=0;" parent="CavwSXmpKCnvgIxQiqFj-450" vertex="1">
            <mxGeometry y="124" width="110" height="25" as="geometry" />
          </mxCell>
        </UserObject>
        <UserObject label="&lt;b&gt;merge_from_private&lt;/b&gt;" tooltip="規定された停止線で一時停止を行います" id="CavwSXmpKCnvgIxQiqFj-457">
          <mxCell style="rounded=1;whiteSpace=wrap;html=1;comic=0;fillColor=#fff2cc;strokeColor=#d6b656;sketch=0;shadow=0;" parent="CavwSXmpKCnvgIxQiqFj-450" vertex="1">
            <mxGeometry y="186.46341463414635" width="110" height="25" as="geometry" />
          </mxCell>
        </UserObject>
        <UserObject label="&lt;b&gt;occlusion_spot&lt;/b&gt;" tooltip="地図情報および動物体情報から、死角手前での減速を行います。" id="CavwSXmpKCnvgIxQiqFj-458">
          <mxCell style="rounded=1;whiteSpace=wrap;html=1;comic=0;fillColor=#fff2cc;strokeColor=#d6b656;sketch=0;shadow=0;flipV=0;flipH=1;" parent="1" vertex="1">
            <mxGeometry x="-533" y="-100" width="110" height="25" as="geometry" />
          </mxCell>
        </UserObject>
        <UserObject label="&lt;b&gt;cross_walk&lt;/b&gt;" tooltip="横断歩道に人が居る、もしくは侵入しようとしてきている場合に、横断歩道手前で停止します。近くに人が居る場合は徐行します。" id="CavwSXmpKCnvgIxQiqFj-459">
          <mxCell style="rounded=1;whiteSpace=wrap;html=1;comic=0;fillColor=#fff2cc;strokeColor=#d6b656;sketch=0;shadow=0;flipV=0;flipH=1;" parent="1" vertex="1">
            <mxGeometry x="-533" y="-161" width="110" height="25" as="geometry" />
          </mxCell>
        </UserObject>
        <UserObject label="&lt;b&gt;detection_area&lt;/b&gt;" tooltip="規定エリア内の障害物点群がある場合に、対応する位置で停止します" id="CavwSXmpKCnvgIxQiqFj-460">
          <mxCell style="rounded=1;whiteSpace=wrap;html=1;comic=0;fillColor=#fff2cc;strokeColor=#d6b656;sketch=0;shadow=0;flipV=0;flipH=1;" parent="1" vertex="1">
            <mxGeometry x="-533" y="-192" width="110" height="25" as="geometry" />
          </mxCell>
        </UserObject>
        <UserObject label="&lt;b&gt;stop_line&lt;/b&gt;" tooltip="規定された停止線で一時停止を行います" id="CavwSXmpKCnvgIxQiqFj-461">
          <mxCell style="rounded=1;whiteSpace=wrap;html=1;comic=0;fillColor=#fff2cc;strokeColor=#d6b656;sketch=0;shadow=0;flipV=0;flipH=1;" parent="1" vertex="1">
            <mxGeometry x="-533" y="-69" width="110" height="25" as="geometry" />
          </mxCell>
        </UserObject>
        <UserObject label="&lt;b&gt;virtual_traffic_light&lt;/b&gt;" tooltip="信号の色に応じて停止/発進の指示をします" id="CavwSXmpKCnvgIxQiqFj-462">
          <mxCell style="rounded=1;whiteSpace=wrap;html=1;comic=0;fillColor=#fff2cc;strokeColor=#d6b656;sketch=0;shadow=0;flipV=0;flipH=1;" parent="1" vertex="1">
            <mxGeometry x="-533" y="-131" width="110" height="25" as="geometry" />
          </mxCell>
        </UserObject>
        <UserObject label="&lt;b&gt;speed_bump&lt;/b&gt;" tooltip="規定された停止線で一時停止を行います" id="CavwSXmpKCnvgIxQiqFj-463">
          <mxCell style="rounded=1;whiteSpace=wrap;html=1;comic=0;fillColor=#fff2cc;strokeColor=#d6b656;sketch=0;shadow=0;flipV=0;flipH=1;arcSize=50;" parent="1" vertex="1">
            <mxGeometry x="-533" y="-38" width="110" height="25" as="geometry" />
          </mxCell>
        </UserObject>
        <UserObject label="&lt;div&gt;&lt;b&gt;walkway&lt;/b&gt;&lt;/div&gt;" tooltip="規定された停止線で一時停止を行います" id="CavwSXmpKCnvgIxQiqFj-464">
          <mxCell style="rounded=1;whiteSpace=wrap;html=1;comic=0;fillColor=#fff2cc;strokeColor=#d6b656;sketch=0;shadow=0;flipV=0;flipH=1;" parent="1" vertex="1">
            <mxGeometry x="-533" y="23.064777327935218" width="110" height="25" as="geometry" />
          </mxCell>
        </UserObject>
        <UserObject label="&lt;div&gt;&lt;b&gt;out_of_lane&lt;/b&gt;&lt;/div&gt;" tooltip="規定された停止線で一時停止を行います" id="CavwSXmpKCnvgIxQiqFj-465">
          <mxCell style="rounded=1;whiteSpace=wrap;html=1;comic=0;fillColor=#fff2cc;strokeColor=#d6b656;sketch=0;shadow=0;flipV=0;flipH=1;" parent="1" vertex="1">
            <mxGeometry x="-533" y="-8" width="110" height="25" as="geometry" />
          </mxCell>
        </UserObject>
        <mxCell id="CavwSXmpKCnvgIxQiqFj-466" style="edgeStyle=orthogonalEdgeStyle;rounded=0;orthogonalLoop=1;jettySize=auto;html=1;exitX=0;exitY=0.5;exitDx=0;exitDy=0;entryX=1;entryY=0.5;entryDx=0;entryDy=0;" parent="1" source="CavwSXmpKCnvgIxQiqFj-467" target="CavwSXmpKCnvgIxQiqFj-434" edge="1">
          <mxGeometry relative="1" as="geometry">
            <Array as="points">
              <mxPoint x="-170" y="680" />
              <mxPoint x="-170" y="731" />
            </Array>
          </mxGeometry>
        </mxCell>
        <UserObject label="&lt;b&gt;external_velocity_&lt;br&gt;limit_selector&lt;/b&gt;" tooltip="apiとautoware.iv内部から送られてくる制約付き減速指示を受け取り、整合性をとる" link="https://github.com/autowarefoundation/autoware.universe/tree/main/planning/external_velocity_limit_selector" id="CavwSXmpKCnvgIxQiqFj-467">
          <mxCell style="rounded=1;whiteSpace=wrap;html=1;comic=0;fillColor=#fff2cc;strokeColor=#d6b656;sketch=0;shadow=0;" parent="1" vertex="1">
            <mxGeometry x="-127" y="660" width="120" height="40" as="geometry" />
          </mxCell>
        </UserObject>
        <UserObject label="&lt;b&gt;surround_obstacle_checker&lt;/b&gt;" tooltip="自車が停止しているときに、周囲の障害物を確認し、近くに障害物がいる場合は車両を発進させない。" link="https://github.com/autowarefoundation/autoware.universe/tree/main/planning/surround_obstacle_checker" id="CavwSXmpKCnvgIxQiqFj-468">
          <mxCell style="rounded=1;whiteSpace=wrap;html=1;comic=0;fillColor=#fff2cc;strokeColor=#d6b656;sketch=0;shadow=0;" parent="1" vertex="1">
            <mxGeometry x="-147" y="391" width="160" height="40" as="geometry" />
          </mxCell>
        </UserObject>
        <mxCell id="CavwSXmpKCnvgIxQiqFj-469" style="edgeStyle=orthogonalEdgeStyle;rounded=0;orthogonalLoop=1;jettySize=auto;html=1;entryX=0.5;entryY=0;entryDx=0;entryDy=0;" parent="1" source="CavwSXmpKCnvgIxQiqFj-468" target="CavwSXmpKCnvgIxQiqFj-467" edge="1">
          <mxGeometry relative="1" as="geometry" />
        </mxCell>
        <mxCell id="CavwSXmpKCnvgIxQiqFj-470" value="/planning/scenario_planning/max_velocity_candidates&lt;br style=&quot;border-color: var(--border-color);&quot;&gt;[tier4_planning_msgs/msg/VelocityLimit]" style="edgeLabel;html=1;align=center;verticalAlign=middle;resizable=0;points=[];" parent="CavwSXmpKCnvgIxQiqFj-469" vertex="1" connectable="0">
          <mxGeometry x="-0.0389" y="3" relative="1" as="geometry">
            <mxPoint x="14" y="50" as="offset" />
          </mxGeometry>
        </mxCell>
        <mxCell id="CavwSXmpKCnvgIxQiqFj-471" style="edgeStyle=orthogonalEdgeStyle;rounded=0;orthogonalLoop=1;jettySize=auto;html=1;exitX=0.5;exitY=1;exitDx=0;exitDy=0;entryX=0.5;entryY=0;entryDx=0;entryDy=0;" parent="1" source="CavwSXmpKCnvgIxQiqFj-446" target="CavwSXmpKCnvgIxQiqFj-290" edge="1">
          <mxGeometry relative="1" as="geometry">
            <Array as="points">
              <mxPoint x="-270" y="940" />
              <mxPoint x="150" y="940" />
              <mxPoint x="150" y="-610" />
              <mxPoint x="590" y="-610" />
              <mxPoint x="590" y="-440" />
              <mxPoint x="450" y="-440" />
            </Array>
          </mxGeometry>
        </mxCell>
        <mxCell id="CavwSXmpKCnvgIxQiqFj-472" value="/diagnostics" style="edgeStyle=none;rounded=0;jumpStyle=arc;orthogonalLoop=1;jettySize=auto;html=1;exitX=0.5;exitY=1;exitDx=0;exitDy=0;labelBackgroundColor=default;fontSize=11;endArrow=classic;endFill=1;startSize=14;endSize=6;sourcePerimeterSpacing=8;targetPerimeterSpacing=8;entryX=0.07;entryY=0.483;entryDx=0;entryDy=0;entryPerimeter=0;" parent="1" source="CavwSXmpKCnvgIxQiqFj-473" target="CavwSXmpKCnvgIxQiqFj-249" edge="1">
          <mxGeometry relative="1" as="geometry">
            <mxPoint x="252" y="-287.5" as="targetPoint" />
          </mxGeometry>
        </mxCell>
        <UserObject label="lane_departure_&lt;br&gt;checker" link="https://github.com/autowarefoundation/autoware.universe/tree/main/control/lane_departure_checker" tooltip="MPCの出す予測経路と、laneletのレーン情報を用いて、車両がレーン外に出ようとしているかどうかを判定する。diag出力をerror_monitorに送り、逸脱判断字は停止する（option）" id="CavwSXmpKCnvgIxQiqFj-473">
          <mxCell style="rounded=1;whiteSpace=wrap;html=1;comic=0;fillColor=#ffe6cc;strokeColor=#d79b00;sketch=0;glass=0;shadow=0;" parent="1" vertex="1">
            <mxGeometry x="180" y="-331.25" width="120" height="40" as="geometry" />
          </mxCell>
        </UserObject>
        <mxCell id="CavwSXmpKCnvgIxQiqFj-474" value="" style="endArrow=classic;html=1;rounded=0;entryX=0.25;entryY=1;entryDx=0;entryDy=0;" parent="1" target="CavwSXmpKCnvgIxQiqFj-354" edge="1">
          <mxGeometry width="50" height="50" relative="1" as="geometry">
            <mxPoint x="-570" y="-790" as="sourcePoint" />
            <mxPoint x="-160" y="-790" as="targetPoint" />
            <Array as="points">
              <mxPoint x="-228" y="-790" />
            </Array>
          </mxGeometry>
        </mxCell>
        <mxCell id="CavwSXmpKCnvgIxQiqFj-475" value="/map/vector_map" style="edgeLabel;html=1;align=center;verticalAlign=middle;resizable=0;points=[];" parent="CavwSXmpKCnvgIxQiqFj-474" vertex="1" connectable="0">
          <mxGeometry x="-0.5669" relative="1" as="geometry">
            <mxPoint x="1" as="offset" />
          </mxGeometry>
        </mxCell>
        <mxCell id="CavwSXmpKCnvgIxQiqFj-476" style="edgeStyle=orthogonalEdgeStyle;rounded=0;orthogonalLoop=1;jettySize=auto;html=1;exitX=0.5;exitY=1;exitDx=0;exitDy=0;entryX=0.5;entryY=0;entryDx=0;entryDy=0;" parent="1" source="CavwSXmpKCnvgIxQiqFj-480" target="CavwSXmpKCnvgIxQiqFj-432" edge="1">
          <mxGeometry relative="1" as="geometry">
            <Array as="points">
              <mxPoint x="-270" y="610" />
              <mxPoint x="-270" y="610" />
            </Array>
          </mxGeometry>
        </mxCell>
        <mxCell id="CavwSXmpKCnvgIxQiqFj-477" value="amd_planner/trajectory [Trajectory]" style="edgeLabel;html=1;align=center;verticalAlign=middle;resizable=0;points=[];" parent="CavwSXmpKCnvgIxQiqFj-476" vertex="1" connectable="0">
          <mxGeometry x="-0.0492" y="-1" relative="1" as="geometry">
            <mxPoint x="1" y="1" as="offset" />
          </mxGeometry>
        </mxCell>
        <mxCell id="CavwSXmpKCnvgIxQiqFj-478" value="/" style="edgeStyle=orthogonalEdgeStyle;rounded=0;orthogonalLoop=1;jettySize=auto;html=1;exitX=0;exitY=0.5;exitDx=0;exitDy=0;entryX=0;entryY=0.5;entryDx=0;entryDy=0;dashed=1;" parent="1" source="CavwSXmpKCnvgIxQiqFj-480" target="CavwSXmpKCnvgIxQiqFj-344" edge="1">
          <mxGeometry relative="1" as="geometry">
            <Array as="points">
              <mxPoint x="-620" y="550" />
              <mxPoint x="-620" y="-993" />
            </Array>
          </mxGeometry>
        </mxCell>
        <mxCell id="CavwSXmpKCnvgIxQiqFj-479" value="/api/routing/set_route_points" style="edgeLabel;html=1;align=center;verticalAlign=middle;resizable=0;points=[];" parent="CavwSXmpKCnvgIxQiqFj-478" vertex="1" connectable="0">
          <mxGeometry x="0.7386" y="3" relative="1" as="geometry">
            <mxPoint as="offset" />
          </mxGeometry>
        </mxCell>
        <UserObject label="&lt;b&gt;amd_parking_planner&lt;/b&gt;" tooltip="障害物停止・前車追従・近傍障害物減速の複数の機能を持ち、機能に応じて経路上に速度を埋め込む。&#xa;目標経路上に障害物点がある場合は停止、経路近くに障害物点群がある場合は減速、前方に車両が居る場合は前車追従。" link="https://github.com/autowarefoundation/autoware.universe/tree/main/planning/obstacle_stop_planner" id="CavwSXmpKCnvgIxQiqFj-480">
          <mxCell style="rounded=1;whiteSpace=wrap;html=1;comic=0;fillColor=#fff2cc;strokeColor=#d6b656;sketch=0;shadow=0;" parent="1" vertex="1">
            <mxGeometry x="-330" y="530" width="120" height="40" as="geometry" />
          </mxCell>
        </UserObject>
        <mxCell id="CavwSXmpKCnvgIxQiqFj-481" style="edgeStyle=orthogonalEdgeStyle;rounded=0;orthogonalLoop=1;jettySize=auto;html=1;exitX=0.75;exitY=0;exitDx=0;exitDy=0;entryX=0.821;entryY=0.95;entryDx=0;entryDy=0;entryPerimeter=0;" parent="1" source="CavwSXmpKCnvgIxQiqFj-393" target="CavwSXmpKCnvgIxQiqFj-379" edge="1">
          <mxGeometry relative="1" as="geometry" />
        </mxCell>
        <mxCell id="CavwSXmpKCnvgIxQiqFj-482" value="/shem/bev" style="edgeLabel;html=1;align=center;verticalAlign=middle;resizable=0;points=[];" parent="CavwSXmpKCnvgIxQiqFj-481" vertex="1" connectable="0">
          <mxGeometry x="-0.1698" y="3" relative="1" as="geometry">
            <mxPoint x="13" y="-137" as="offset" />
          </mxGeometry>
        </mxCell>
        <mxCell id="CavwSXmpKCnvgIxQiqFj-483" style="edgeStyle=orthogonalEdgeStyle;rounded=0;orthogonalLoop=1;jettySize=auto;html=1;exitX=0.75;exitY=1;exitDx=0;exitDy=0;entryX=0.696;entryY=0.035;entryDx=0;entryDy=0;entryPerimeter=0;" parent="1" source="CavwSXmpKCnvgIxQiqFj-379" target="CavwSXmpKCnvgIxQiqFj-393" edge="1">
          <mxGeometry relative="1" as="geometry" />
        </mxCell>
        <mxCell id="CavwSXmpKCnvgIxQiqFj-484" value="/rviz2/show_parking_lot" style="edgeLabel;html=1;align=center;verticalAlign=middle;resizable=0;points=[];rotation=90;" parent="CavwSXmpKCnvgIxQiqFj-483" vertex="1" connectable="0">
          <mxGeometry x="0.2597" y="-3" relative="1" as="geometry">
            <mxPoint y="1" as="offset" />
          </mxGeometry>
        </mxCell>
        <mxCell id="g-xprRMv2T4vLQJjBPTB-15" style="edgeStyle=orthogonalEdgeStyle;rounded=0;orthogonalLoop=1;jettySize=auto;html=1;exitX=1;exitY=0.75;exitDx=0;exitDy=0;entryX=1;entryY=0.25;entryDx=0;entryDy=0;" edge="1" parent="1" source="CavwSXmpKCnvgIxQiqFj-379" target="CavwSXmpKCnvgIxQiqFj-393">
          <mxGeometry relative="1" as="geometry">
            <Array as="points">
              <mxPoint x="-790" y="-817" />
              <mxPoint x="-790" y="-204" />
            </Array>
          </mxGeometry>
        </mxCell>
        <mxCell id="g-xprRMv2T4vLQJjBPTB-17" value="/rviz2/selected_parkinglot_pose" style="edgeLabel;html=1;align=center;verticalAlign=middle;resizable=0;points=[];rotation=90;" vertex="1" connectable="0" parent="g-xprRMv2T4vLQJjBPTB-15">
          <mxGeometry x="0.0114" y="1" relative="1" as="geometry">
            <mxPoint y="1" as="offset" />
          </mxGeometry>
        </mxCell>
      </root>
    </mxGraphModel>
  </diagram>
</mxfile>
